<svg xmlns="http://www.w3.org/2000/svg" viewBox="0 0 800 500" role="img" aria-label="">
<defs>
  <linearGradient id="lg" x1="0" y1="0" x2="1" y2="1">
    <stop offset="0" stop-color="hsl(136 85% 62%)"/><stop offset="1" stop-color="hsl(254 85% 60%)"/>
  </linearGradient>
  <radialGradient id="bg" cx="0.3" cy="0.2" r="1.1">
    <stop offset="0" stop-color="#141830"/><stop offset="1" stop-color="#0b0d18"/>
  </radialGradient>
  <filter id="blur" x="-60%" y="-60%" width="220%" height="220%">
    <feGaussianBlur stdDeviation="46"/>
  </filter>
</defs>
<rect width="800" height="500" fill="url(#bg)"/>
<circle cx="471" cy="76" r="234" fill="hsl(254 85% 60%)" fill-opacity="0.13" filter="url(#blur)"/><circle cx="418" cy="272" r="248" fill="hsl(136 85% 62%)" fill-opacity="0.13" filter="url(#blur)"/><circle cx="275" cy="323" r="170" fill="hsl(254 85% 60%)" fill-opacity="0.13" filter="url(#blur)"/>
<path d="M 0 367 L 0 384.3 L 40 367.7 L 80 364.8 L 120 348.4 L 160 347.6 L 200 393.2 L 240 354.7 L 280 376.6 L 320 382.4 L 360 384.8 L 400 383.1 L 440 366.1 L 480 341.3 L 520 353.5 L 560 356.4 L 600 361.9 L 640 394.6 L 680 387.5 L 720 386.2 L 760 379.4 L 800 351.0" fill="none" stroke="url(#lg)" stroke-opacity="0.5" stroke-width="1.6"/>
<line x1="164.7" y1="383.6" x2="58.5" y2="368.5" stroke="url(#lg)" stroke-opacity="0.097" stroke-width="1"/><line x1="164.7" y1="383.6" x2="185.4" y2="299.1" stroke="url(#lg)" stroke-opacity="0.143" stroke-width="1"/><line x1="164.7" y1="383.6" x2="168.6" y2="276.8" stroke="url(#lg)" stroke-opacity="0.098" stroke-width="1"/><line x1="164.7" y1="383.6" x2="233.2" y2="339.2" stroke="url(#lg)" stroke-opacity="0.155" stroke-width="1"/><line x1="575.5" y1="418.6" x2="590.0" y2="354.9" stroke="url(#lg)" stroke-opacity="0.192" stroke-width="1"/><line x1="575.5" y1="418.6" x2="589.2" y2="446.4" stroke="url(#lg)" stroke-opacity="0.270" stroke-width="1"/><line x1="575.5" y1="418.6" x2="529.2" y2="431.3" stroke="url(#lg)" stroke-opacity="0.231" stroke-width="1"/><line x1="575.5" y1="418.6" x2="501.0" y2="338.1" stroke="url(#lg)" stroke-opacity="0.091" stroke-width="1"/><line x1="753.4" y1="296.9" x2="722.1" y2="172.3" stroke="url(#lg)" stroke-opacity="0.049" stroke-width="1"/><line x1="590.0" y1="354.9" x2="589.2" y2="446.4" stroke="url(#lg)" stroke-opacity="0.133" stroke-width="1"/><line x1="590.0" y1="354.9" x2="529.2" y2="431.3" stroke="url(#lg)" stroke-opacity="0.119" stroke-width="1"/><line x1="590.0" y1="354.9" x2="501.0" y2="338.1" stroke="url(#lg)" stroke-opacity="0.135" stroke-width="1"/><line x1="590.0" y1="354.9" x2="598.2" y2="246.0" stroke="url(#lg)" stroke-opacity="0.092" stroke-width="1"/><line x1="403.1" y1="295.8" x2="319.1" y2="342.5" stroke="url(#lg)" stroke-opacity="0.122" stroke-width="1"/><line x1="403.1" y1="295.8" x2="338.1" y2="255.9" stroke="url(#lg)" stroke-opacity="0.167" stroke-width="1"/><line x1="403.1" y1="295.8" x2="386.6" y2="251.1" stroke="url(#lg)" stroke-opacity="0.232" stroke-width="1"/><line x1="403.1" y1="295.8" x2="315.6" y2="190.8" stroke="url(#lg)" stroke-opacity="0.030" stroke-width="1"/><line x1="403.1" y1="295.8" x2="501.0" y2="338.1" stroke="url(#lg)" stroke-opacity="0.098" stroke-width="1"/><line x1="403.1" y1="295.8" x2="433.6" y2="271.6" stroke="url(#lg)" stroke-opacity="0.252" stroke-width="1"/><line x1="403.1" y1="295.8" x2="424.8" y2="411.7" stroke="url(#lg)" stroke-opacity="0.073" stroke-width="1"/><line x1="58.5" y1="368.5" x2="185.4" y2="299.1" stroke="url(#lg)" stroke-opacity="0.012" stroke-width="1"/><line x1="58.5" y1="368.5" x2="168.6" y2="276.8" stroke="url(#lg)" stroke-opacity="0.015" stroke-width="1"/><line x1="722.1" y1="172.3" x2="675.3" y2="142.2" stroke="url(#lg)" stroke-opacity="0.214" stroke-width="1"/><line x1="722.1" y1="172.3" x2="670.8" y2="100.3" stroke="url(#lg)" stroke-opacity="0.140" stroke-width="1"/><line x1="722.1" y1="172.3" x2="598.2" y2="246.0" stroke="url(#lg)" stroke-opacity="0.013" stroke-width="1"/><line x1="185.4" y1="299.1" x2="319.1" y2="342.5" stroke="url(#lg)" stroke-opacity="0.021" stroke-width="1"/><line x1="185.4" y1="299.1" x2="202.4" y2="175.6" stroke="url(#lg)" stroke-opacity="0.057" stroke-width="1"/><line x1="185.4" y1="299.1" x2="168.6" y2="276.8" stroke="url(#lg)" stroke-opacity="0.277" stroke-width="1"/><line x1="185.4" y1="299.1" x2="233.2" y2="339.2" stroke="url(#lg)" stroke-opacity="0.199" stroke-width="1"/><line x1="319.1" y1="342.5" x2="338.1" y2="255.9" stroke="url(#lg)" stroke-opacity="0.139" stroke-width="1"/><line x1="319.1" y1="342.5" x2="386.6" y2="251.1" stroke="url(#lg)" stroke-opacity="0.082" stroke-width="1"/><line x1="319.1" y1="342.5" x2="433.6" y2="271.6" stroke="url(#lg)" stroke-opacity="0.035" stroke-width="1"/><line x1="319.1" y1="342.5" x2="233.2" y2="339.2" stroke="url(#lg)" stroke-opacity="0.145" stroke-width="1"/><line x1="319.1" y1="342.5" x2="424.8" y2="411.7" stroke="url(#lg)" stroke-opacity="0.054" stroke-width="1"/><line x1="589.2" y1="446.4" x2="529.2" y2="431.3" stroke="url(#lg)" stroke-opacity="0.200" stroke-width="1"/><line x1="589.2" y1="446.4" x2="501.0" y2="338.1" stroke="url(#lg)" stroke-opacity="0.023" stroke-width="1"/><line x1="675.3" y1="142.2" x2="567.8" y2="182.9" stroke="url(#lg)" stroke-opacity="0.080" stroke-width="1"/><line x1="675.3" y1="142.2" x2="670.8" y2="100.3" stroke="url(#lg)" stroke-opacity="0.244" stroke-width="1"/><line x1="675.3" y1="142.2" x2="598.2" y2="246.0" stroke="url(#lg)" stroke-opacity="0.047" stroke-width="1"/><line x1="567.8" y1="182.9" x2="670.8" y2="100.3" stroke="url(#lg)" stroke-opacity="0.041" stroke-width="1"/><line x1="567.8" y1="182.9" x2="598.2" y2="246.0" stroke="url(#lg)" stroke-opacity="0.181" stroke-width="1"/><line x1="202.4" y1="175.6" x2="311.9" y2="98.8" stroke="url(#lg)" stroke-opacity="0.037" stroke-width="1"/><line x1="202.4" y1="175.6" x2="168.6" y2="276.8" stroke="url(#lg)" stroke-opacity="0.098" stroke-width="1"/><line x1="202.4" y1="175.6" x2="315.6" y2="190.8" stroke="url(#lg)" stroke-opacity="0.081" stroke-width="1"/><line x1="311.9" y1="98.8" x2="315.6" y2="190.8" stroke="url(#lg)" stroke-opacity="0.131" stroke-width="1"/><line x1="311.9" y1="98.8" x2="415.6" y2="126.6" stroke="url(#lg)" stroke-opacity="0.097" stroke-width="1"/><line x1="529.2" y1="431.3" x2="501.0" y2="338.1" stroke="url(#lg)" stroke-opacity="0.119" stroke-width="1"/><line x1="529.2" y1="431.3" x2="424.8" y2="411.7" stroke="url(#lg)" stroke-opacity="0.099" stroke-width="1"/><line x1="338.1" y1="255.9" x2="386.6" y2="251.1" stroke="url(#lg)" stroke-opacity="0.229" stroke-width="1"/><line x1="338.1" y1="255.9" x2="315.6" y2="190.8" stroke="url(#lg)" stroke-opacity="0.184" stroke-width="1"/><line x1="338.1" y1="255.9" x2="433.6" y2="271.6" stroke="url(#lg)" stroke-opacity="0.120" stroke-width="1"/><line x1="338.1" y1="255.9" x2="233.2" y2="339.2" stroke="url(#lg)" stroke-opacity="0.036" stroke-width="1"/><line x1="168.6" y1="276.8" x2="233.2" y2="339.2" stroke="url(#lg)" stroke-opacity="0.137" stroke-width="1"/><line x1="386.6" y1="251.1" x2="315.6" y2="190.8" stroke="url(#lg)" stroke-opacity="0.129" stroke-width="1"/><line x1="386.6" y1="251.1" x2="415.6" y2="126.6" stroke="url(#lg)" stroke-opacity="0.050" stroke-width="1"/><line x1="386.6" y1="251.1" x2="501.0" y2="338.1" stroke="url(#lg)" stroke-opacity="0.014" stroke-width="1"/><line x1="386.6" y1="251.1" x2="433.6" y2="271.6" stroke="url(#lg)" stroke-opacity="0.224" stroke-width="1"/><line x1="315.6" y1="190.8" x2="415.6" y2="126.6" stroke="url(#lg)" stroke-opacity="0.071" stroke-width="1"/><line x1="315.6" y1="190.8" x2="433.6" y2="271.6" stroke="url(#lg)" stroke-opacity="0.016" stroke-width="1"/><line x1="415.6" y1="126.6" x2="433.6" y2="271.6" stroke="url(#lg)" stroke-opacity="0.009" stroke-width="1"/><line x1="501.0" y1="338.1" x2="433.6" y2="271.6" stroke="url(#lg)" stroke-opacity="0.125" stroke-width="1"/><line x1="501.0" y1="338.1" x2="424.8" y2="411.7" stroke="url(#lg)" stroke-opacity="0.100" stroke-width="1"/><line x1="501.0" y1="338.1" x2="598.2" y2="246.0" stroke="url(#lg)" stroke-opacity="0.036" stroke-width="1"/><line x1="433.6" y1="271.6" x2="424.8" y2="411.7" stroke="url(#lg)" stroke-opacity="0.022" stroke-width="1"/>
<circle cx="164.7" cy="383.6" r="3.4" fill="hsl(254 85% 60%)" fill-opacity="0.72"/><circle cx="575.5" cy="418.6" r="4.9" fill="hsl(136 85% 62%)" fill-opacity="0.76"/><circle cx="753.4" cy="296.9" r="3.4" fill="hsl(136 85% 62%)" fill-opacity="0.89"/><circle cx="590.0" cy="354.9" r="4.9" fill="hsl(254 85% 60%)" fill-opacity="0.92"/><circle cx="403.1" cy="295.8" r="3.2" fill="hsl(136 85% 62%)" fill-opacity="0.91"/><circle cx="58.5" cy="368.5" r="4.8" fill="hsl(136 85% 62%)" fill-opacity="0.89"/><circle cx="722.1" cy="172.3" r="1.7" fill="hsl(254 85% 60%)" fill-opacity="0.97"/><circle cx="185.4" cy="299.1" r="4.2" fill="hsl(136 85% 62%)" fill-opacity="0.79"/><circle cx="319.1" cy="342.5" r="3.3" fill="hsl(136 85% 62%)" fill-opacity="0.70"/><circle cx="589.2" cy="446.4" r="3.4" fill="hsl(254 85% 60%)" fill-opacity="0.68"/><circle cx="675.3" cy="142.2" r="2.8" fill="hsl(136 85% 62%)" fill-opacity="0.61"/><circle cx="567.8" cy="182.9" r="2.0" fill="hsl(136 85% 62%)" fill-opacity="0.78"/><circle cx="202.4" cy="175.6" r="2.2" fill="hsl(254 85% 60%)" fill-opacity="0.67"/><circle cx="311.9" cy="98.8" r="3.0" fill="hsl(136 85% 62%)" fill-opacity="0.97"/><circle cx="529.2" cy="431.3" r="4.3" fill="hsl(136 85% 62%)" fill-opacity="0.95"/><circle cx="338.1" cy="255.9" r="4.4" fill="hsl(254 85% 60%)" fill-opacity="0.94"/><circle cx="168.6" cy="276.8" r="2.3" fill="hsl(136 85% 62%)" fill-opacity="0.87"/><circle cx="386.6" cy="251.1" r="3.0" fill="hsl(136 85% 62%)" fill-opacity="0.62"/><circle cx="670.8" cy="100.3" r="1.7" fill="hsl(254 85% 60%)" fill-opacity="0.92"/><circle cx="315.6" cy="190.8" r="4.4" fill="hsl(136 85% 62%)" fill-opacity="0.87"/><circle cx="415.6" cy="126.6" r="1.7" fill="hsl(136 85% 62%)" fill-opacity="1.00"/><circle cx="501.0" cy="338.1" r="4.4" fill="hsl(254 85% 60%)" fill-opacity="0.91"/><circle cx="433.6" cy="271.6" r="4.7" fill="hsl(136 85% 62%)" fill-opacity="0.83"/><circle cx="233.2" cy="339.2" r="2.1" fill="hsl(136 85% 62%)" fill-opacity="0.93"/><circle cx="424.8" cy="411.7" r="3.3" fill="hsl(254 85% 60%)" fill-opacity="0.99"/><circle cx="598.2" cy="246.0" r="2.0" fill="hsl(136 85% 62%)" fill-opacity="0.87"/>
</svg>