<svg xmlns="http://www.w3.org/2000/svg" viewBox="0 0 800 500" role="img" aria-label="">
<defs>
  <linearGradient id="lg" x1="0" y1="0" x2="1" y2="1">
    <stop offset="0" stop-color="hsl(196 85% 62%)"/><stop offset="1" stop-color="hsl(315 85% 60%)"/>
  </linearGradient>
  <radialGradient id="bg" cx="0.3" cy="0.2" r="1.1">
    <stop offset="0" stop-color="#141830"/><stop offset="1" stop-color="#0b0d18"/>
  </radialGradient>
  <filter id="blur" x="-60%" y="-60%" width="220%" height="220%">
    <feGaussianBlur stdDeviation="46"/>
  </filter>
</defs>
<rect width="800" height="500" fill="url(#bg)"/>
<circle cx="343" cy="79" r="135" fill="hsl(315 85% 60%)" fill-opacity="0.13" filter="url(#blur)"/><circle cx="594" cy="187" r="219" fill="hsl(196 85% 62%)" fill-opacity="0.13" filter="url(#blur)"/><circle cx="538" cy="159" r="221" fill="hsl(315 85% 60%)" fill-opacity="0.13" filter="url(#blur)"/>
<path d="M 0 327 L 0 316.7 L 40 352.5 L 80 306.3 L 120 303.8 L 160 315.2 L 200 293.0 L 240 296.7 L 280 297.1 L 320 334.9 L 360 346.6 L 400 350.7 L 440 309.4 L 480 309.9 L 520 324.1 L 560 317.9 L 600 298.1 L 640 297.6 L 680 312.6 L 720 333.7 L 760 346.7 L 800 356.8" fill="none" stroke="url(#lg)" stroke-opacity="0.5" stroke-width="1.6"/>
<line x1="62.8" y1="271.5" x2="48.6" y2="146.4" stroke="url(#lg)" stroke-opacity="0.055" stroke-width="1"/><line x1="62.8" y1="271.5" x2="77.4" y2="231.1" stroke="url(#lg)" stroke-opacity="0.243" stroke-width="1"/><line x1="62.8" y1="271.5" x2="197.6" y2="322.2" stroke="url(#lg)" stroke-opacity="0.014" stroke-width="1"/><line x1="62.8" y1="271.5" x2="55.3" y2="418.3" stroke="url(#lg)" stroke-opacity="0.007" stroke-width="1"/><line x1="412.9" y1="185.7" x2="342.9" y2="88.6" stroke="url(#lg)" stroke-opacity="0.069" stroke-width="1"/><line x1="412.9" y1="185.7" x2="481.1" y2="210.1" stroke="url(#lg)" stroke-opacity="0.176" stroke-width="1"/><line x1="412.9" y1="185.7" x2="547.2" y2="130.4" stroke="url(#lg)" stroke-opacity="0.011" stroke-width="1"/><line x1="412.9" y1="185.7" x2="545.9" y2="231.2" stroke="url(#lg)" stroke-opacity="0.021" stroke-width="1"/><line x1="412.9" y1="185.7" x2="382.2" y2="103.2" stroke="url(#lg)" stroke-opacity="0.140" stroke-width="1"/><line x1="412.9" y1="185.7" x2="523.4" y2="264.2" stroke="url(#lg)" stroke-opacity="0.033" stroke-width="1"/><line x1="412.9" y1="185.7" x2="311.7" y2="197.6" stroke="url(#lg)" stroke-opacity="0.109" stroke-width="1"/><line x1="412.9" y1="185.7" x2="332.7" y2="210.2" stroke="url(#lg)" stroke-opacity="0.150" stroke-width="1"/><line x1="332.0" y1="445.9" x2="411.5" y2="386.8" stroke="url(#lg)" stroke-opacity="0.115" stroke-width="1"/><line x1="332.0" y1="445.9" x2="348.0" y2="403.3" stroke="url(#lg)" stroke-opacity="0.237" stroke-width="1"/><line x1="332.0" y1="445.9" x2="326.9" y2="332.8" stroke="url(#lg)" stroke-opacity="0.084" stroke-width="1"/><line x1="332.0" y1="445.9" x2="287.7" y2="309.5" stroke="url(#lg)" stroke-opacity="0.015" stroke-width="1"/><line x1="50.8" y1="65.5" x2="48.6" y2="146.4" stroke="url(#lg)" stroke-opacity="0.156" stroke-width="1"/><line x1="50.8" y1="65.5" x2="52.9" y2="89.2" stroke="url(#lg)" stroke-opacity="0.286" stroke-width="1"/><line x1="696.3" y1="158.4" x2="708.0" y2="179.7" stroke="url(#lg)" stroke-opacity="0.285" stroke-width="1"/><line x1="696.3" y1="158.4" x2="625.4" y2="159.5" stroke="url(#lg)" stroke-opacity="0.179" stroke-width="1"/><line x1="696.3" y1="158.4" x2="600.2" y2="116.6" stroke="url(#lg)" stroke-opacity="0.103" stroke-width="1"/><line x1="342.9" y1="88.6" x2="254.8" y2="86.5" stroke="url(#lg)" stroke-opacity="0.140" stroke-width="1"/><line x1="342.9" y1="88.6" x2="382.2" y2="103.2" stroke="url(#lg)" stroke-opacity="0.245" stroke-width="1"/><line x1="342.9" y1="88.6" x2="311.7" y2="197.6" stroke="url(#lg)" stroke-opacity="0.083" stroke-width="1"/><line x1="342.9" y1="88.6" x2="332.7" y2="210.2" stroke="url(#lg)" stroke-opacity="0.063" stroke-width="1"/><line x1="137.7" y1="401.6" x2="197.6" y2="322.2" stroke="url(#lg)" stroke-opacity="0.114" stroke-width="1"/><line x1="137.7" y1="401.6" x2="55.3" y2="418.3" stroke="url(#lg)" stroke-opacity="0.149" stroke-width="1"/><line x1="254.8" y1="86.5" x2="382.2" y2="103.2" stroke="url(#lg)" stroke-opacity="0.049" stroke-width="1"/><line x1="254.8" y1="86.5" x2="311.7" y2="197.6" stroke="url(#lg)" stroke-opacity="0.057" stroke-width="1"/><line x1="254.8" y1="86.5" x2="332.7" y2="210.2" stroke="url(#lg)" stroke-opacity="0.009" stroke-width="1"/><line x1="481.1" y1="210.1" x2="547.2" y2="130.4" stroke="url(#lg)" stroke-opacity="0.105" stroke-width="1"/><line x1="481.1" y1="210.1" x2="545.9" y2="231.2" stroke="url(#lg)" stroke-opacity="0.185" stroke-width="1"/><line x1="481.1" y1="210.1" x2="382.2" y2="103.2" stroke="url(#lg)" stroke-opacity="0.010" stroke-width="1"/><line x1="481.1" y1="210.1" x2="546.6" y2="307.4" stroke="url(#lg)" stroke-opacity="0.074" stroke-width="1"/><line x1="481.1" y1="210.1" x2="523.4" y2="264.2" stroke="url(#lg)" stroke-opacity="0.184" stroke-width="1"/><line x1="481.1" y1="210.1" x2="332.7" y2="210.2" stroke="url(#lg)" stroke-opacity="0.004" stroke-width="1"/><line x1="48.6" y1="146.4" x2="52.9" y2="89.2" stroke="url(#lg)" stroke-opacity="0.210" stroke-width="1"/><line x1="48.6" y1="146.4" x2="77.4" y2="231.1" stroke="url(#lg)" stroke-opacity="0.137" stroke-width="1"/><line x1="547.2" y1="130.4" x2="545.9" y2="231.2" stroke="url(#lg)" stroke-opacity="0.112" stroke-width="1"/><line x1="547.2" y1="130.4" x2="625.4" y2="159.5" stroke="url(#lg)" stroke-opacity="0.151" stroke-width="1"/><line x1="547.2" y1="130.4" x2="600.2" y2="116.6" stroke="url(#lg)" stroke-opacity="0.216" stroke-width="1"/><line x1="547.2" y1="130.4" x2="523.4" y2="264.2" stroke="url(#lg)" stroke-opacity="0.032" stroke-width="1"/><line x1="547.2" y1="130.4" x2="520.8" y2="41.9" stroke="url(#lg)" stroke-opacity="0.131" stroke-width="1"/><line x1="708.0" y1="179.7" x2="625.4" y2="159.5" stroke="url(#lg)" stroke-opacity="0.147" stroke-width="1"/><line x1="708.0" y1="179.7" x2="600.2" y2="116.6" stroke="url(#lg)" stroke-opacity="0.057" stroke-width="1"/><line x1="545.9" y1="231.2" x2="625.4" y2="159.5" stroke="url(#lg)" stroke-opacity="0.097" stroke-width="1"/><line x1="545.9" y1="231.2" x2="546.6" y2="307.4" stroke="url(#lg)" stroke-opacity="0.167" stroke-width="1"/><line x1="545.9" y1="231.2" x2="600.2" y2="116.6" stroke="url(#lg)" stroke-opacity="0.053" stroke-width="1"/><line x1="545.9" y1="231.2" x2="523.4" y2="264.2" stroke="url(#lg)" stroke-opacity="0.249" stroke-width="1"/><line x1="699.9" y1="374.9" x2="669.3" y2="334.3" stroke="url(#lg)" stroke-opacity="0.225" stroke-width="1"/><line x1="411.5" y1="386.8" x2="348.0" y2="403.3" stroke="url(#lg)" stroke-opacity="0.191" stroke-width="1"/><line x1="411.5" y1="386.8" x2="326.9" y2="332.8" stroke="url(#lg)" stroke-opacity="0.112" stroke-width="1"/><line x1="411.5" y1="386.8" x2="287.7" y2="309.5" stroke="url(#lg)" stroke-opacity="0.009" stroke-width="1"/><line x1="382.2" y1="103.2" x2="311.7" y2="197.6" stroke="url(#lg)" stroke-opacity="0.073" stroke-width="1"/><line x1="382.2" y1="103.2" x2="332.7" y2="210.2" stroke="url(#lg)" stroke-opacity="0.073" stroke-width="1"/><line x1="348.0" y1="403.3" x2="326.9" y2="332.8" stroke="url(#lg)" stroke-opacity="0.173" stroke-width="1"/><line x1="348.0" y1="403.3" x2="287.7" y2="309.5" stroke="url(#lg)" stroke-opacity="0.087" stroke-width="1"/><line x1="625.4" y1="159.5" x2="600.2" y2="116.6" stroke="url(#lg)" stroke-opacity="0.227" stroke-width="1"/><line x1="625.4" y1="159.5" x2="523.4" y2="264.2" stroke="url(#lg)" stroke-opacity="0.009" stroke-width="1"/><line x1="546.6" y1="307.4" x2="523.4" y2="264.2" stroke="url(#lg)" stroke-opacity="0.229" stroke-width="1"/><line x1="546.6" y1="307.4" x2="669.3" y2="334.3" stroke="url(#lg)" stroke-opacity="0.055" stroke-width="1"/><line x1="52.9" y1="89.2" x2="77.4" y2="231.1" stroke="url(#lg)" stroke-opacity="0.014" stroke-width="1"/><line x1="600.2" y1="116.6" x2="520.8" y2="41.9" stroke="url(#lg)" stroke-opacity="0.093" stroke-width="1"/><line x1="311.7" y1="197.6" x2="332.7" y2="210.2" stroke="url(#lg)" stroke-opacity="0.284" stroke-width="1"/><line x1="311.7" y1="197.6" x2="326.9" y2="332.8" stroke="url(#lg)" stroke-opacity="0.032" stroke-width="1"/><line x1="311.7" y1="197.6" x2="287.7" y2="309.5" stroke="url(#lg)" stroke-opacity="0.081" stroke-width="1"/><line x1="197.6" y1="322.2" x2="326.9" y2="332.8" stroke="url(#lg)" stroke-opacity="0.046" stroke-width="1"/><line x1="197.6" y1="322.2" x2="287.7" y2="309.5" stroke="url(#lg)" stroke-opacity="0.134" stroke-width="1"/><line x1="332.7" y1="210.2" x2="326.9" y2="332.8" stroke="url(#lg)" stroke-opacity="0.062" stroke-width="1"/><line x1="332.7" y1="210.2" x2="287.7" y2="309.5" stroke="url(#lg)" stroke-opacity="0.093" stroke-width="1"/><line x1="326.9" y1="332.8" x2="287.7" y2="309.5" stroke="url(#lg)" stroke-opacity="0.237" stroke-width="1"/>
<circle cx="62.8" cy="271.5" r="3.6" fill="hsl(315 85% 60%)" fill-opacity="0.93"/><circle cx="412.9" cy="185.7" r="2.4" fill="hsl(196 85% 62%)" fill-opacity="0.74"/><circle cx="332.0" cy="445.9" r="4.5" fill="hsl(196 85% 62%)" fill-opacity="0.69"/><circle cx="50.8" cy="65.5" r="3.7" fill="hsl(315 85% 60%)" fill-opacity="0.94"/><circle cx="696.3" cy="158.4" r="3.9" fill="hsl(196 85% 62%)" fill-opacity="0.83"/><circle cx="567.4" cy="456.9" r="3.6" fill="hsl(196 85% 62%)" fill-opacity="0.83"/><circle cx="342.9" cy="88.6" r="3.5" fill="hsl(315 85% 60%)" fill-opacity="0.77"/><circle cx="137.7" cy="401.6" r="3.2" fill="hsl(196 85% 62%)" fill-opacity="0.86"/><circle cx="254.8" cy="86.5" r="4.1" fill="hsl(196 85% 62%)" fill-opacity="0.62"/><circle cx="481.1" cy="210.1" r="3.5" fill="hsl(315 85% 60%)" fill-opacity="0.79"/><circle cx="48.6" cy="146.4" r="2.3" fill="hsl(196 85% 62%)" fill-opacity="0.80"/><circle cx="547.2" cy="130.4" r="2.5" fill="hsl(196 85% 62%)" fill-opacity="0.75"/><circle cx="708.0" cy="179.7" r="2.6" fill="hsl(315 85% 60%)" fill-opacity="0.73"/><circle cx="545.9" cy="231.2" r="4.9" fill="hsl(196 85% 62%)" fill-opacity="0.63"/><circle cx="699.9" cy="374.9" r="2.0" fill="hsl(196 85% 62%)" fill-opacity="0.77"/><circle cx="411.5" cy="386.8" r="4.7" fill="hsl(315 85% 60%)" fill-opacity="0.93"/><circle cx="382.2" cy="103.2" r="4.3" fill="hsl(196 85% 62%)" fill-opacity="0.73"/><circle cx="348.0" cy="403.3" r="1.9" fill="hsl(196 85% 62%)" fill-opacity="0.59"/><circle cx="625.4" cy="159.5" r="2.3" fill="hsl(315 85% 60%)" fill-opacity="0.76"/><circle cx="546.6" cy="307.4" r="4.9" fill="hsl(196 85% 62%)" fill-opacity="0.98"/><circle cx="52.9" cy="89.2" r="3.1" fill="hsl(196 85% 62%)" fill-opacity="0.56"/><circle cx="600.2" cy="116.6" r="3.3" fill="hsl(315 85% 60%)" fill-opacity="0.75"/><circle cx="77.4" cy="231.1" r="4.2" fill="hsl(196 85% 62%)" fill-opacity="0.99"/><circle cx="523.4" cy="264.2" r="2.5" fill="hsl(196 85% 62%)" fill-opacity="0.93"/><circle cx="311.7" cy="197.6" r="3.3" fill="hsl(315 85% 60%)" fill-opacity="0.67"/><circle cx="197.6" cy="322.2" r="2.3" fill="hsl(196 85% 62%)" fill-opacity="0.73"/><circle cx="332.7" cy="210.2" r="4.8" fill="hsl(196 85% 62%)" fill-opacity="0.98"/><circle cx="326.9" cy="332.8" r="4.4" fill="hsl(315 85% 60%)" fill-opacity="0.61"/><circle cx="669.3" cy="334.3" r="3.0" fill="hsl(196 85% 62%)" fill-opacity="0.57"/><circle cx="287.7" cy="309.5" r="3.1" fill="hsl(196 85% 62%)" fill-opacity="0.93"/><circle cx="55.3" cy="418.3" r="4.3" fill="hsl(315 85% 60%)" fill-opacity="0.78"/><circle cx="520.8" cy="41.9" r="3.9" fill="hsl(196 85% 62%)" fill-opacity="0.72"/>
</svg>