<svg xmlns="http://www.w3.org/2000/svg" viewBox="0 0 800 500" role="img" aria-label="">
<defs>
  <linearGradient id="lg" x1="0" y1="0" x2="1" y2="1">
    <stop offset="0" stop-color="hsl(161 85% 62%)"/><stop offset="1" stop-color="hsl(266 85% 60%)"/>
  </linearGradient>
  <radialGradient id="bg" cx="0.3" cy="0.2" r="1.1">
    <stop offset="0" stop-color="#141830"/><stop offset="1" stop-color="#0b0d18"/>
  </radialGradient>
  <filter id="blur" x="-60%" y="-60%" width="220%" height="220%">
    <feGaussianBlur stdDeviation="46"/>
  </filter>
</defs>
<rect width="800" height="500" fill="url(#bg)"/>
<circle cx="207" cy="331" r="251" fill="hsl(266 85% 60%)" fill-opacity="0.13" filter="url(#blur)"/><circle cx="363" cy="412" r="182" fill="hsl(161 85% 62%)" fill-opacity="0.13" filter="url(#blur)"/><circle cx="362" cy="83" r="188" fill="hsl(266 85% 60%)" fill-opacity="0.13" filter="url(#blur)"/>
<path d="M 0 341 L 0 365.1 L 40 353.3 L 80 323.5 L 120 345.7 L 160 308.0 L 200 321.7 L 240 330.6 L 280 332.3 L 320 364.1 L 360 362.5 L 400 358.0 L 440 368.3 L 480 334.0 L 520 338.7 L 560 317.4 L 600 339.9 L 640 345.8 L 680 363.9 L 720 357.1 L 760 360.9 L 800 369.9" fill="none" stroke="url(#lg)" stroke-opacity="0.5" stroke-width="1.6"/>
<line x1="117.8" y1="118.6" x2="237.6" y2="65.5" stroke="url(#lg)" stroke-opacity="0.043" stroke-width="1"/><line x1="117.8" y1="118.6" x2="179.1" y2="233.8" stroke="url(#lg)" stroke-opacity="0.044" stroke-width="1"/><line x1="117.8" y1="118.6" x2="75.5" y2="46.5" stroke="url(#lg)" stroke-opacity="0.151" stroke-width="1"/><line x1="117.8" y1="118.6" x2="264.6" y2="143.6" stroke="url(#lg)" stroke-opacity="0.002" stroke-width="1"/><line x1="534.7" y1="422.5" x2="557.4" y2="376.0" stroke="url(#lg)" stroke-opacity="0.223" stroke-width="1"/><line x1="534.7" y1="422.5" x2="415.6" y2="420.2" stroke="url(#lg)" stroke-opacity="0.070" stroke-width="1"/><line x1="534.7" y1="422.5" x2="562.0" y2="299.7" stroke="url(#lg)" stroke-opacity="0.055" stroke-width="1"/><line x1="534.7" y1="422.5" x2="656.1" y2="434.4" stroke="url(#lg)" stroke-opacity="0.064" stroke-width="1"/><line x1="534.7" y1="422.5" x2="384.9" y2="418.3" stroke="url(#lg)" stroke-opacity="0.000" stroke-width="1"/><line x1="534.7" y1="422.5" x2="650.2" y2="357.2" stroke="url(#lg)" stroke-opacity="0.039" stroke-width="1"/><line x1="237.6" y1="65.5" x2="265.1" y2="152.3" stroke="url(#lg)" stroke-opacity="0.134" stroke-width="1"/><line x1="237.6" y1="65.5" x2="280.4" y2="180.4" stroke="url(#lg)" stroke-opacity="0.062" stroke-width="1"/><line x1="237.6" y1="65.5" x2="264.6" y2="143.6" stroke="url(#lg)" stroke-opacity="0.153" stroke-width="1"/><line x1="691.5" y1="84.5" x2="634.5" y2="219.9" stroke="url(#lg)" stroke-opacity="0.007" stroke-width="1"/><line x1="691.5" y1="84.5" x2="603.9" y2="77.2" stroke="url(#lg)" stroke-opacity="0.141" stroke-width="1"/><line x1="691.5" y1="84.5" x2="744.9" y2="145.3" stroke="url(#lg)" stroke-opacity="0.157" stroke-width="1"/><line x1="265.1" y1="152.3" x2="179.1" y2="233.8" stroke="url(#lg)" stroke-opacity="0.071" stroke-width="1"/><line x1="265.1" y1="152.3" x2="280.4" y2="180.4" stroke="url(#lg)" stroke-opacity="0.267" stroke-width="1"/><line x1="265.1" y1="152.3" x2="264.6" y2="143.6" stroke="url(#lg)" stroke-opacity="0.320" stroke-width="1"/><line x1="668.8" y1="346.5" x2="634.5" y2="219.9" stroke="url(#lg)" stroke-opacity="0.043" stroke-width="1"/><line x1="668.8" y1="346.5" x2="557.4" y2="376.0" stroke="url(#lg)" stroke-opacity="0.079" stroke-width="1"/><line x1="668.8" y1="346.5" x2="606.2" y2="217.3" stroke="url(#lg)" stroke-opacity="0.015" stroke-width="1"/><line x1="668.8" y1="346.5" x2="562.0" y2="299.7" stroke="url(#lg)" stroke-opacity="0.076" stroke-width="1"/><line x1="668.8" y1="346.5" x2="686.0" y2="298.2" stroke="url(#lg)" stroke-opacity="0.224" stroke-width="1"/><line x1="668.8" y1="346.5" x2="656.1" y2="434.4" stroke="url(#lg)" stroke-opacity="0.139" stroke-width="1"/><line x1="668.8" y1="346.5" x2="650.2" y2="357.2" stroke="url(#lg)" stroke-opacity="0.291" stroke-width="1"/><line x1="668.8" y1="346.5" x2="726.6" y2="422.3" stroke="url(#lg)" stroke-opacity="0.124" stroke-width="1"/><line x1="668.8" y1="346.5" x2="738.3" y2="445.9" stroke="url(#lg)" stroke-opacity="0.065" stroke-width="1"/><line x1="517.4" y1="165.9" x2="634.5" y2="219.9" stroke="url(#lg)" stroke-opacity="0.048" stroke-width="1"/><line x1="517.4" y1="165.9" x2="606.2" y2="217.3" stroke="url(#lg)" stroke-opacity="0.107" stroke-width="1"/><line x1="517.4" y1="165.9" x2="472.8" y2="227.9" stroke="url(#lg)" stroke-opacity="0.167" stroke-width="1"/><line x1="517.4" y1="165.9" x2="562.0" y2="299.7" stroke="url(#lg)" stroke-opacity="0.020" stroke-width="1"/><line x1="517.4" y1="165.9" x2="603.9" y2="77.2" stroke="url(#lg)" stroke-opacity="0.059" stroke-width="1"/><line x1="517.4" y1="165.9" x2="493.3" y2="84.7" stroke="url(#lg)" stroke-opacity="0.148" stroke-width="1"/><line x1="634.5" y1="219.9" x2="606.2" y2="217.3" stroke="url(#lg)" stroke-opacity="0.276" stroke-width="1"/><line x1="634.5" y1="219.9" x2="562.0" y2="299.7" stroke="url(#lg)" stroke-opacity="0.096" stroke-width="1"/><line x1="634.5" y1="219.9" x2="686.0" y2="298.2" stroke="url(#lg)" stroke-opacity="0.127" stroke-width="1"/><line x1="634.5" y1="219.9" x2="650.2" y2="357.2" stroke="url(#lg)" stroke-opacity="0.027" stroke-width="1"/><line x1="634.5" y1="219.9" x2="603.9" y2="77.2" stroke="url(#lg)" stroke-opacity="0.009" stroke-width="1"/><line x1="634.5" y1="219.9" x2="744.9" y2="145.3" stroke="url(#lg)" stroke-opacity="0.038" stroke-width="1"/><line x1="427.4" y1="303.8" x2="557.4" y2="376.0" stroke="url(#lg)" stroke-opacity="0.003" stroke-width="1"/><line x1="427.4" y1="303.8" x2="472.8" y2="227.9" stroke="url(#lg)" stroke-opacity="0.140" stroke-width="1"/><line x1="427.4" y1="303.8" x2="415.6" y2="420.2" stroke="url(#lg)" stroke-opacity="0.075" stroke-width="1"/><line x1="427.4" y1="303.8" x2="562.0" y2="299.7" stroke="url(#lg)" stroke-opacity="0.035" stroke-width="1"/><line x1="427.4" y1="303.8" x2="384.9" y2="418.3" stroke="url(#lg)" stroke-opacity="0.063" stroke-width="1"/><line x1="557.4" y1="376.0" x2="415.6" y2="420.2" stroke="url(#lg)" stroke-opacity="0.003" stroke-width="1"/><line x1="557.4" y1="376.0" x2="562.0" y2="299.7" stroke="url(#lg)" stroke-opacity="0.167" stroke-width="1"/><line x1="557.4" y1="376.0" x2="656.1" y2="434.4" stroke="url(#lg)" stroke-opacity="0.080" stroke-width="1"/><line x1="557.4" y1="376.0" x2="650.2" y2="357.2" stroke="url(#lg)" stroke-opacity="0.125" stroke-width="1"/><line x1="606.2" y1="217.3" x2="472.8" y2="227.9" stroke="url(#lg)" stroke-opacity="0.037" stroke-width="1"/><line x1="606.2" y1="217.3" x2="562.0" y2="299.7" stroke="url(#lg)" stroke-opacity="0.128" stroke-width="1"/><line x1="606.2" y1="217.3" x2="686.0" y2="298.2" stroke="url(#lg)" stroke-opacity="0.082" stroke-width="1"/><line x1="606.2" y1="217.3" x2="650.2" y2="357.2" stroke="url(#lg)" stroke-opacity="0.008" stroke-width="1"/><line x1="606.2" y1="217.3" x2="603.9" y2="77.2" stroke="url(#lg)" stroke-opacity="0.022" stroke-width="1"/><line x1="472.8" y1="227.9" x2="562.0" y2="299.7" stroke="url(#lg)" stroke-opacity="0.081" stroke-width="1"/><line x1="472.8" y1="227.9" x2="493.3" y2="84.7" stroke="url(#lg)" stroke-opacity="0.012" stroke-width="1"/><line x1="415.6" y1="420.2" x2="384.9" y2="418.3" stroke="url(#lg)" stroke-opacity="0.270" stroke-width="1"/><line x1="415.6" y1="420.2" x2="316.8" y2="432.2" stroke="url(#lg)" stroke-opacity="0.115" stroke-width="1"/><line x1="562.0" y1="299.7" x2="686.0" y2="298.2" stroke="url(#lg)" stroke-opacity="0.059" stroke-width="1"/><line x1="562.0" y1="299.7" x2="650.2" y2="357.2" stroke="url(#lg)" stroke-opacity="0.101" stroke-width="1"/><line x1="179.1" y1="233.8" x2="43.7" y2="262.9" stroke="url(#lg)" stroke-opacity="0.026" stroke-width="1"/><line x1="179.1" y1="233.8" x2="131.6" y2="276.8" stroke="url(#lg)" stroke-opacity="0.195" stroke-width="1"/><line x1="179.1" y1="233.8" x2="194.3" y2="364.6" stroke="url(#lg)" stroke-opacity="0.042" stroke-width="1"/><line x1="179.1" y1="233.8" x2="280.4" y2="180.4" stroke="url(#lg)" stroke-opacity="0.081" stroke-width="1"/><line x1="179.1" y1="233.8" x2="213.6" y2="329.7" stroke="url(#lg)" stroke-opacity="0.109" stroke-width="1"/><line x1="179.1" y1="233.8" x2="264.6" y2="143.6" stroke="url(#lg)" stroke-opacity="0.058" stroke-width="1"/><line x1="686.0" y1="298.2" x2="656.1" y2="434.4" stroke="url(#lg)" stroke-opacity="0.024" stroke-width="1"/><line x1="686.0" y1="298.2" x2="650.2" y2="357.2" stroke="url(#lg)" stroke-opacity="0.184" stroke-width="1"/><line x1="686.0" y1="298.2" x2="726.6" y2="422.3" stroke="url(#lg)" stroke-opacity="0.044" stroke-width="1"/><line x1="656.1" y1="434.4" x2="650.2" y2="357.2" stroke="url(#lg)" stroke-opacity="0.165" stroke-width="1"/><line x1="656.1" y1="434.4" x2="726.6" y2="422.3" stroke="url(#lg)" stroke-opacity="0.178" stroke-width="1"/><line x1="656.1" y1="434.4" x2="738.3" y2="445.9" stroke="url(#lg)" stroke-opacity="0.152" stroke-width="1"/><line x1="384.9" y1="418.3" x2="316.8" y2="432.2" stroke="url(#lg)" stroke-opacity="0.183" stroke-width="1"/><line x1="384.9" y1="418.3" x2="271.3" y2="376.5" stroke="url(#lg)" stroke-opacity="0.066" stroke-width="1"/><line x1="43.7" y1="262.9" x2="131.6" y2="276.8" stroke="url(#lg)" stroke-opacity="0.138" stroke-width="1"/><line x1="131.6" y1="276.8" x2="194.3" y2="364.6" stroke="url(#lg)" stroke-opacity="0.095" stroke-width="1"/><line x1="131.6" y1="276.8" x2="213.6" y2="329.7" stroke="url(#lg)" stroke-opacity="0.119" stroke-width="1"/><line x1="194.3" y1="364.6" x2="316.8" y2="432.2" stroke="url(#lg)" stroke-opacity="0.023" stroke-width="1"/><line x1="194.3" y1="364.6" x2="213.6" y2="329.7" stroke="url(#lg)" stroke-opacity="0.250" stroke-width="1"/><line x1="194.3" y1="364.6" x2="271.3" y2="376.5" stroke="url(#lg)" stroke-opacity="0.163" stroke-width="1"/><line x1="650.2" y1="357.2" x2="726.6" y2="422.3" stroke="url(#lg)" stroke-opacity="0.112" stroke-width="1"/><line x1="650.2" y1="357.2" x2="738.3" y2="445.9" stroke="url(#lg)" stroke-opacity="0.057" stroke-width="1"/><line x1="316.8" y1="432.2" x2="213.6" y2="329.7" stroke="url(#lg)" stroke-opacity="0.010" stroke-width="1"/><line x1="316.8" y1="432.2" x2="271.3" y2="376.5" stroke="url(#lg)" stroke-opacity="0.177" stroke-width="1"/><line x1="726.6" y1="422.3" x2="738.3" y2="445.9" stroke="url(#lg)" stroke-opacity="0.280" stroke-width="1"/><line x1="603.9" y1="77.2" x2="493.3" y2="84.7" stroke="url(#lg)" stroke-opacity="0.089" stroke-width="1"/><line x1="280.4" y1="180.4" x2="264.6" y2="143.6" stroke="url(#lg)" stroke-opacity="0.249" stroke-width="1"/><line x1="213.6" y1="329.7" x2="271.3" y2="376.5" stroke="url(#lg)" stroke-opacity="0.172" stroke-width="1"/>
<circle cx="117.8" cy="118.6" r="2.6" fill="hsl(266 85% 60%)" fill-opacity="0.63"/><circle cx="534.7" cy="422.5" r="1.9" fill="hsl(161 85% 62%)" fill-opacity="0.85"/><circle cx="237.6" cy="65.5" r="2.1" fill="hsl(161 85% 62%)" fill-opacity="0.59"/><circle cx="691.5" cy="84.5" r="3.1" fill="hsl(266 85% 60%)" fill-opacity="0.66"/><circle cx="265.1" cy="152.3" r="2.4" fill="hsl(161 85% 62%)" fill-opacity="0.93"/><circle cx="668.8" cy="346.5" r="3.1" fill="hsl(161 85% 62%)" fill-opacity="0.83"/><circle cx="517.4" cy="165.9" r="1.6" fill="hsl(266 85% 60%)" fill-opacity="0.66"/><circle cx="634.5" cy="219.9" r="4.4" fill="hsl(161 85% 62%)" fill-opacity="0.77"/><circle cx="427.4" cy="303.8" r="4.0" fill="hsl(161 85% 62%)" fill-opacity="0.88"/><circle cx="557.4" cy="376.0" r="3.1" fill="hsl(266 85% 60%)" fill-opacity="0.79"/><circle cx="606.2" cy="217.3" r="3.5" fill="hsl(161 85% 62%)" fill-opacity="0.96"/><circle cx="472.8" cy="227.9" r="3.5" fill="hsl(161 85% 62%)" fill-opacity="0.96"/><circle cx="415.6" cy="420.2" r="1.7" fill="hsl(266 85% 60%)" fill-opacity="0.95"/><circle cx="562.0" cy="299.7" r="3.2" fill="hsl(161 85% 62%)" fill-opacity="0.83"/><circle cx="179.1" cy="233.8" r="2.0" fill="hsl(161 85% 62%)" fill-opacity="0.69"/><circle cx="686.0" cy="298.2" r="4.8" fill="hsl(266 85% 60%)" fill-opacity="0.67"/><circle cx="656.1" cy="434.4" r="4.6" fill="hsl(161 85% 62%)" fill-opacity="0.84"/><circle cx="384.9" cy="418.3" r="2.3" fill="hsl(161 85% 62%)" fill-opacity="0.57"/><circle cx="43.7" cy="262.9" r="3.5" fill="hsl(266 85% 60%)" fill-opacity="0.86"/><circle cx="75.5" cy="46.5" r="2.3" fill="hsl(161 85% 62%)" fill-opacity="0.62"/><circle cx="131.6" cy="276.8" r="2.9" fill="hsl(161 85% 62%)" fill-opacity="0.58"/><circle cx="194.3" cy="364.6" r="3.7" fill="hsl(266 85% 60%)" fill-opacity="0.65"/><circle cx="650.2" cy="357.2" r="2.0" fill="hsl(161 85% 62%)" fill-opacity="0.89"/><circle cx="316.8" cy="432.2" r="2.5" fill="hsl(161 85% 62%)" fill-opacity="0.55"/><circle cx="726.6" cy="422.3" r="1.7" fill="hsl(266 85% 60%)" fill-opacity="0.64"/><circle cx="603.9" cy="77.2" r="4.9" fill="hsl(161 85% 62%)" fill-opacity="0.91"/><circle cx="280.4" cy="180.4" r="2.1" fill="hsl(161 85% 62%)" fill-opacity="0.65"/><circle cx="738.3" cy="445.9" r="1.6" fill="hsl(266 85% 60%)" fill-opacity="0.61"/><circle cx="213.6" cy="329.7" r="3.2" fill="hsl(161 85% 62%)" fill-opacity="0.65"/><circle cx="271.3" cy="376.5" r="3.5" fill="hsl(161 85% 62%)" fill-opacity="0.66"/><circle cx="744.9" cy="145.3" r="2.0" fill="hsl(266 85% 60%)" fill-opacity="0.83"/><circle cx="264.6" cy="143.6" r="4.6" fill="hsl(161 85% 62%)" fill-opacity="0.70"/><circle cx="493.3" cy="84.7" r="2.3" fill="hsl(161 85% 62%)" fill-opacity="0.83"/>
</svg>