<svg xmlns="http://www.w3.org/2000/svg" viewBox="0 0 800 500" role="img" aria-label="">
<defs>
  <linearGradient id="lg" x1="0" y1="0" x2="1" y2="1">
    <stop offset="0" stop-color="hsl(329 85% 62%)"/><stop offset="1" stop-color="hsl(55 85% 60%)"/>
  </linearGradient>
  <radialGradient id="bg" cx="0.3" cy="0.2" r="1.1">
    <stop offset="0" stop-color="#141830"/><stop offset="1" stop-color="#0b0d18"/>
  </radialGradient>
  <filter id="blur" x="-60%" y="-60%" width="220%" height="220%">
    <feGaussianBlur stdDeviation="46"/>
  </filter>
</defs>
<rect width="800" height="500" fill="url(#bg)"/>
<circle cx="80" cy="94" r="261" fill="hsl(55 85% 60%)" fill-opacity="0.13" filter="url(#blur)"/><circle cx="106" cy="49" r="212" fill="hsl(329 85% 62%)" fill-opacity="0.13" filter="url(#blur)"/><circle cx="274" cy="348" r="164" fill="hsl(55 85% 60%)" fill-opacity="0.13" filter="url(#blur)"/>
<path d="M 0 345 L 0 368.1 L 40 358.9 L 80 344.8 L 120 323.4 L 160 346.1 L 200 337.8 L 240 354.8 L 280 333.2 L 320 356.3 L 360 359.1 L 400 333.2 L 440 328.9 L 480 377.0 L 520 349.0 L 560 329.7 L 600 355.4 L 640 339.3 L 680 372.8 L 720 357.0 L 760 338.2 L 800 358.8" fill="none" stroke="url(#lg)" stroke-opacity="0.5" stroke-width="1.6"/>
<line x1="548.7" y1="166.4" x2="537.2" y2="141.7" stroke="url(#lg)" stroke-opacity="0.278" stroke-width="1"/><line x1="548.7" y1="166.4" x2="578.6" y2="87.1" stroke="url(#lg)" stroke-opacity="0.148" stroke-width="1"/><line x1="548.7" y1="166.4" x2="642.4" y2="243.1" stroke="url(#lg)" stroke-opacity="0.065" stroke-width="1"/><line x1="548.7" y1="166.4" x2="522.9" y2="256.8" stroke="url(#lg)" stroke-opacity="0.127" stroke-width="1"/><line x1="548.7" y1="166.4" x2="490.8" y2="164.3" stroke="url(#lg)" stroke-opacity="0.209" stroke-width="1"/><line x1="548.7" y1="166.4" x2="682.7" y2="220.4" stroke="url(#lg)" stroke-opacity="0.013" stroke-width="1"/><line x1="548.7" y1="166.4" x2="602.4" y2="81.4" stroke="url(#lg)" stroke-opacity="0.112" stroke-width="1"/><line x1="548.7" y1="166.4" x2="570.9" y2="189.2" stroke="url(#lg)" stroke-opacity="0.268" stroke-width="1"/><line x1="568.3" y1="319.1" x2="519.6" y2="433.3" stroke="url(#lg)" stroke-opacity="0.058" stroke-width="1"/><line x1="568.3" y1="319.1" x2="675.6" y2="293.9" stroke="url(#lg)" stroke-opacity="0.090" stroke-width="1"/><line x1="568.3" y1="319.1" x2="511.0" y2="378.4" stroke="url(#lg)" stroke-opacity="0.153" stroke-width="1"/><line x1="568.3" y1="319.1" x2="642.4" y2="243.1" stroke="url(#lg)" stroke-opacity="0.099" stroke-width="1"/><line x1="568.3" y1="319.1" x2="625.8" y2="441.5" stroke="url(#lg)" stroke-opacity="0.033" stroke-width="1"/><line x1="568.3" y1="319.1" x2="522.9" y2="256.8" stroke="url(#lg)" stroke-opacity="0.165" stroke-width="1"/><line x1="568.3" y1="319.1" x2="531.5" y2="427.3" stroke="url(#lg)" stroke-opacity="0.081" stroke-width="1"/><line x1="568.3" y1="319.1" x2="632.3" y2="396.0" stroke="url(#lg)" stroke-opacity="0.113" stroke-width="1"/><line x1="568.3" y1="319.1" x2="474.9" y2="386.0" stroke="url(#lg)" stroke-opacity="0.080" stroke-width="1"/><line x1="568.3" y1="319.1" x2="570.9" y2="189.2" stroke="url(#lg)" stroke-opacity="0.045" stroke-width="1"/><line x1="519.6" y1="433.3" x2="511.0" y2="378.4" stroke="url(#lg)" stroke-opacity="0.214" stroke-width="1"/><line x1="519.6" y1="433.3" x2="371.8" y2="415.7" stroke="url(#lg)" stroke-opacity="0.003" stroke-width="1"/><line x1="519.6" y1="433.3" x2="625.8" y2="441.5" stroke="url(#lg)" stroke-opacity="0.099" stroke-width="1"/><line x1="519.6" y1="433.3" x2="531.5" y2="427.3" stroke="url(#lg)" stroke-opacity="0.310" stroke-width="1"/><line x1="519.6" y1="433.3" x2="632.3" y2="396.0" stroke="url(#lg)" stroke-opacity="0.071" stroke-width="1"/><line x1="519.6" y1="433.3" x2="474.9" y2="386.0" stroke="url(#lg)" stroke-opacity="0.193" stroke-width="1"/><line x1="519.6" y1="433.3" x2="420.9" y2="422.6" stroke="url(#lg)" stroke-opacity="0.115" stroke-width="1"/><line x1="45.0" y1="309.2" x2="97.7" y2="347.4" stroke="url(#lg)" stroke-opacity="0.193" stroke-width="1"/><line x1="45.0" y1="309.2" x2="181.4" y2="297.5" stroke="url(#lg)" stroke-opacity="0.030" stroke-width="1"/><line x1="675.6" y1="293.9" x2="674.2" y2="436.6" stroke="url(#lg)" stroke-opacity="0.017" stroke-width="1"/><line x1="675.6" y1="293.9" x2="642.4" y2="243.1" stroke="url(#lg)" stroke-opacity="0.202" stroke-width="1"/><line x1="675.6" y1="293.9" x2="716.1" y2="400.1" stroke="url(#lg)" stroke-opacity="0.082" stroke-width="1"/><line x1="675.6" y1="293.9" x2="632.3" y2="396.0" stroke="url(#lg)" stroke-opacity="0.089" stroke-width="1"/><line x1="675.6" y1="293.9" x2="682.7" y2="220.4" stroke="url(#lg)" stroke-opacity="0.173" stroke-width="1"/><line x1="675.6" y1="293.9" x2="570.9" y2="189.2" stroke="url(#lg)" stroke-opacity="0.004" stroke-width="1"/><line x1="511.0" y1="378.4" x2="371.8" y2="415.7" stroke="url(#lg)" stroke-opacity="0.013" stroke-width="1"/><line x1="511.0" y1="378.4" x2="625.8" y2="441.5" stroke="url(#lg)" stroke-opacity="0.043" stroke-width="1"/><line x1="511.0" y1="378.4" x2="522.9" y2="256.8" stroke="url(#lg)" stroke-opacity="0.063" stroke-width="1"/><line x1="511.0" y1="378.4" x2="531.5" y2="427.3" stroke="url(#lg)" stroke-opacity="0.220" stroke-width="1"/><line x1="511.0" y1="378.4" x2="632.3" y2="396.0" stroke="url(#lg)" stroke-opacity="0.062" stroke-width="1"/><line x1="511.0" y1="378.4" x2="474.9" y2="386.0" stroke="url(#lg)" stroke-opacity="0.256" stroke-width="1"/><line x1="511.0" y1="378.4" x2="420.9" y2="422.6" stroke="url(#lg)" stroke-opacity="0.113" stroke-width="1"/><line x1="371.8" y1="415.7" x2="474.9" y2="386.0" stroke="url(#lg)" stroke-opacity="0.097" stroke-width="1"/><line x1="371.8" y1="415.7" x2="420.9" y2="422.6" stroke="url(#lg)" stroke-opacity="0.228" stroke-width="1"/><line x1="97.7" y1="347.4" x2="181.4" y2="297.5" stroke="url(#lg)" stroke-opacity="0.119" stroke-width="1"/><line x1="674.2" y1="436.6" x2="625.8" y2="441.5" stroke="url(#lg)" stroke-opacity="0.230" stroke-width="1"/><line x1="674.2" y1="436.6" x2="716.1" y2="400.1" stroke="url(#lg)" stroke-opacity="0.214" stroke-width="1"/><line x1="674.2" y1="436.6" x2="531.5" y2="427.3" stroke="url(#lg)" stroke-opacity="0.016" stroke-width="1"/><line x1="674.2" y1="436.6" x2="632.3" y2="396.0" stroke="url(#lg)" stroke-opacity="0.208" stroke-width="1"/><line x1="537.2" y1="141.7" x2="578.6" y2="87.1" stroke="url(#lg)" stroke-opacity="0.185" stroke-width="1"/><line x1="537.2" y1="141.7" x2="642.4" y2="243.1" stroke="url(#lg)" stroke-opacity="0.009" stroke-width="1"/><line x1="537.2" y1="141.7" x2="522.9" y2="256.8" stroke="url(#lg)" stroke-opacity="0.077" stroke-width="1"/><line x1="537.2" y1="141.7" x2="490.8" y2="164.3" stroke="url(#lg)" stroke-opacity="0.223" stroke-width="1"/><line x1="537.2" y1="141.7" x2="602.4" y2="81.4" stroke="url(#lg)" stroke-opacity="0.139" stroke-width="1"/><line x1="537.2" y1="141.7" x2="570.9" y2="189.2" stroke="url(#lg)" stroke-opacity="0.208" stroke-width="1"/><line x1="669.3" y1="65.2" x2="578.6" y2="87.1" stroke="url(#lg)" stroke-opacity="0.128" stroke-width="1"/><line x1="669.3" y1="65.2" x2="602.4" y2="81.4" stroke="url(#lg)" stroke-opacity="0.184" stroke-width="1"/><line x1="578.6" y1="87.1" x2="490.8" y2="164.3" stroke="url(#lg)" stroke-opacity="0.075" stroke-width="1"/><line x1="578.6" y1="87.1" x2="602.4" y2="81.4" stroke="url(#lg)" stroke-opacity="0.284" stroke-width="1"/><line x1="578.6" y1="87.1" x2="570.9" y2="189.2" stroke="url(#lg)" stroke-opacity="0.108" stroke-width="1"/><line x1="315.6" y1="69.3" x2="201.8" y2="139.3" stroke="url(#lg)" stroke-opacity="0.037" stroke-width="1"/><line x1="315.6" y1="69.3" x2="284.6" y2="85.3" stroke="url(#lg)" stroke-opacity="0.261" stroke-width="1"/><line x1="201.8" y1="139.3" x2="69.7" y2="108.2" stroke="url(#lg)" stroke-opacity="0.032" stroke-width="1"/><line x1="201.8" y1="139.3" x2="52.4" y2="141.4" stroke="url(#lg)" stroke-opacity="0.001" stroke-width="1"/><line x1="201.8" y1="139.3" x2="116.1" y2="55.3" stroke="url(#lg)" stroke-opacity="0.068" stroke-width="1"/><line x1="201.8" y1="139.3" x2="284.6" y2="85.3" stroke="url(#lg)" stroke-opacity="0.116" stroke-width="1"/><line x1="69.7" y1="108.2" x2="52.4" y2="141.4" stroke="url(#lg)" stroke-opacity="0.255" stroke-width="1"/><line x1="69.7" y1="108.2" x2="116.1" y2="55.3" stroke="url(#lg)" stroke-opacity="0.181" stroke-width="1"/><line x1="642.4" y1="243.1" x2="522.9" y2="256.8" stroke="url(#lg)" stroke-opacity="0.067" stroke-width="1"/><line x1="642.4" y1="243.1" x2="682.7" y2="220.4" stroke="url(#lg)" stroke-opacity="0.235" stroke-width="1"/><line x1="642.4" y1="243.1" x2="570.9" y2="189.2" stroke="url(#lg)" stroke-opacity="0.137" stroke-width="1"/><line x1="625.8" y1="441.5" x2="716.1" y2="400.1" stroke="url(#lg)" stroke-opacity="0.115" stroke-width="1"/><line x1="625.8" y1="441.5" x2="531.5" y2="427.3" stroke="url(#lg)" stroke-opacity="0.124" stroke-width="1"/><line x1="625.8" y1="441.5" x2="632.3" y2="396.0" stroke="url(#lg)" stroke-opacity="0.236" stroke-width="1"/><line x1="716.1" y1="400.1" x2="632.3" y2="396.0" stroke="url(#lg)" stroke-opacity="0.150" stroke-width="1"/><line x1="522.9" y1="256.8" x2="490.8" y2="164.3" stroke="url(#lg)" stroke-opacity="0.118" stroke-width="1"/><line x1="522.9" y1="256.8" x2="474.9" y2="386.0" stroke="url(#lg)" stroke-opacity="0.028" stroke-width="1"/><line x1="522.9" y1="256.8" x2="570.9" y2="189.2" stroke="url(#lg)" stroke-opacity="0.152" stroke-width="1"/><line x1="531.5" y1="427.3" x2="632.3" y2="396.0" stroke="url(#lg)" stroke-opacity="0.101" stroke-width="1"/><line x1="531.5" y1="427.3" x2="474.9" y2="386.0" stroke="url(#lg)" stroke-opacity="0.181" stroke-width="1"/><line x1="531.5" y1="427.3" x2="420.9" y2="422.6" stroke="url(#lg)" stroke-opacity="0.089" stroke-width="1"/><line x1="52.4" y1="141.4" x2="116.1" y2="55.3" stroke="url(#lg)" stroke-opacity="0.097" stroke-width="1"/><line x1="490.8" y1="164.3" x2="602.4" y2="81.4" stroke="url(#lg)" stroke-opacity="0.025" stroke-width="1"/><line x1="490.8" y1="164.3" x2="570.9" y2="189.2" stroke="url(#lg)" stroke-opacity="0.150" stroke-width="1"/><line x1="682.7" y1="220.4" x2="570.9" y2="189.2" stroke="url(#lg)" stroke-opacity="0.077" stroke-width="1"/><line x1="602.4" y1="81.4" x2="570.9" y2="189.2" stroke="url(#lg)" stroke-opacity="0.086" stroke-width="1"/><line x1="474.9" y1="386.0" x2="420.9" y2="422.6" stroke="url(#lg)" stroke-opacity="0.192" stroke-width="1"/>
<circle cx="548.7" cy="166.4" r="3.6" fill="hsl(55 85% 60%)" fill-opacity="0.74"/><circle cx="568.3" cy="319.1" r="2.1" fill="hsl(329 85% 62%)" fill-opacity="0.64"/><circle cx="519.6" cy="433.3" r="4.2" fill="hsl(329 85% 62%)" fill-opacity="0.90"/><circle cx="45.0" cy="309.2" r="3.2" fill="hsl(55 85% 60%)" fill-opacity="0.99"/><circle cx="675.6" cy="293.9" r="4.3" fill="hsl(329 85% 62%)" fill-opacity="0.55"/><circle cx="511.0" cy="378.4" r="2.5" fill="hsl(329 85% 62%)" fill-opacity="0.79"/><circle cx="371.8" cy="415.7" r="2.2" fill="hsl(55 85% 60%)" fill-opacity="0.57"/><circle cx="97.7" cy="347.4" r="4.2" fill="hsl(329 85% 62%)" fill-opacity="0.65"/><circle cx="674.2" cy="436.6" r="3.5" fill="hsl(329 85% 62%)" fill-opacity="0.55"/><circle cx="537.2" cy="141.7" r="2.9" fill="hsl(55 85% 60%)" fill-opacity="0.56"/><circle cx="669.3" cy="65.2" r="2.5" fill="hsl(329 85% 62%)" fill-opacity="0.89"/><circle cx="578.6" cy="87.1" r="4.4" fill="hsl(329 85% 62%)" fill-opacity="0.85"/><circle cx="315.6" cy="69.3" r="2.9" fill="hsl(55 85% 60%)" fill-opacity="0.79"/><circle cx="201.8" cy="139.3" r="3.2" fill="hsl(329 85% 62%)" fill-opacity="0.66"/><circle cx="181.4" cy="297.5" r="4.4" fill="hsl(329 85% 62%)" fill-opacity="0.57"/><circle cx="69.7" cy="108.2" r="1.7" fill="hsl(55 85% 60%)" fill-opacity="0.72"/><circle cx="642.4" cy="243.1" r="3.2" fill="hsl(329 85% 62%)" fill-opacity="0.94"/><circle cx="625.8" cy="441.5" r="3.7" fill="hsl(329 85% 62%)" fill-opacity="0.63"/><circle cx="716.1" cy="400.1" r="5.0" fill="hsl(55 85% 60%)" fill-opacity="0.68"/><circle cx="522.9" cy="256.8" r="1.9" fill="hsl(329 85% 62%)" fill-opacity="0.84"/><circle cx="531.5" cy="427.3" r="2.7" fill="hsl(329 85% 62%)" fill-opacity="0.76"/><circle cx="52.4" cy="141.4" r="2.7" fill="hsl(55 85% 60%)" fill-opacity="0.89"/><circle cx="490.8" cy="164.3" r="4.6" fill="hsl(329 85% 62%)" fill-opacity="0.94"/><circle cx="632.3" cy="396.0" r="2.8" fill="hsl(329 85% 62%)" fill-opacity="0.99"/><circle cx="682.7" cy="220.4" r="2.4" fill="hsl(55 85% 60%)" fill-opacity="0.62"/><circle cx="116.1" cy="55.3" r="4.0" fill="hsl(329 85% 62%)" fill-opacity="0.75"/><circle cx="602.4" cy="81.4" r="3.1" fill="hsl(329 85% 62%)" fill-opacity="0.81"/><circle cx="474.9" cy="386.0" r="3.6" fill="hsl(55 85% 60%)" fill-opacity="0.99"/><circle cx="570.9" cy="189.2" r="4.3" fill="hsl(329 85% 62%)" fill-opacity="0.63"/><circle cx="420.9" cy="422.6" r="3.6" fill="hsl(329 85% 62%)" fill-opacity="1.00"/><circle cx="284.6" cy="85.3" r="3.4" fill="hsl(55 85% 60%)" fill-opacity="0.99"/>
</svg>