<svg xmlns="http://www.w3.org/2000/svg" viewBox="0 0 1280 720" width="1280" height="720">

  <defs>
    <radialGradient id="bg" cx="50%" cy="42%" r="80%">
      <stop offset="0%" stop-color="#07211f"/>
      <stop offset="55%" stop-color="#0a1224"/>
      <stop offset="100%" stop-color="#05070f"/>
    </radialGradient>
    <linearGradient id="acc" x1="0" y1="0" x2="1" y2="1">
      <stop offset="0%" stop-color="#38f0c0"/>
      <stop offset="50%" stop-color="#22d3ee"/>
      <stop offset="100%" stop-color="#3b82f6"/>
    </linearGradient>
    <linearGradient id="accV" x1="0" y1="0" x2="0" y2="1">
      <stop offset="0%" stop-color="#38f0c0"/>
      <stop offset="100%" stop-color="#3b82f6"/>
    </linearGradient>
    <filter id="glow" x="-60%" y="-60%" width="220%" height="220%">
      <feGaussianBlur stdDeviation="6" result="b"/>
      <feMerge><feMergeNode in="b"/><feMergeNode in="SourceGraphic"/></feMerge>
    </filter>
    <filter id="softglow" x="-80%" y="-80%" width="260%" height="260%">
      <feGaussianBlur stdDeviation="14" result="b"/>
      <feMerge><feMergeNode in="b"/><feMergeNode in="SourceGraphic"/></feMerge>
    </filter>
  </defs>
  <rect width="1280" height="720" fill="url(#bg)"/>
  <g fill="#22d3ee">
    <circle cx="1123" cy="343" r="1" opacity="0.47"/>
    <circle cx="315" cy="292" r="1.8" opacity="0.58"/>
    <circle cx="1160" cy="63" r="2.4" opacity="0.48"/>
    <circle cx="561" cy="668" r="1.4" opacity="0.5"/>
    <circle cx="1198" cy="99" r="1.4" opacity="0.1"/>
    <circle cx="1052" cy="11" r="0.8" opacity="0.46"/>
    <circle cx="767" cy="25" r="1.4" opacity="0.44"/>
    <circle cx="105" cy="23" r="1" opacity="0.59"/>
    <circle cx="161" cy="160" r="1.4" opacity="0.18"/>
    <circle cx="150" cy="489" r="1.4" opacity="0.14"/>
    <circle cx="329" cy="590" r="0.8" opacity="0.44"/>
    <circle cx="266" cy="558" r="1.8" opacity="0.59"/>
    <circle cx="1014" cy="330" r="1.8" opacity="0.41"/>
    <circle cx="72" cy="270" r="2.4" opacity="0.48"/>
    <circle cx="934" cy="515" r="2.4" opacity="0.48"/>
    <circle cx="234" cy="686" r="1.4" opacity="0.37"/>
    <circle cx="200" cy="75" r="1.8" opacity="0.3"/>
    <circle cx="405" cy="452" r="1.8" opacity="0.44"/>
    <circle cx="531" cy="597" r="1" opacity="0.22"/>
    <circle cx="1186" cy="177" r="0.8" opacity="0.58"/>
    <circle cx="162" cy="96" r="0.8" opacity="0.57"/>
    <circle cx="359" cy="24" r="1" opacity="0.45"/>
    <circle cx="994" cy="629" r="2.4" opacity="0.11"/>
    <circle cx="954" cy="515" r="1" opacity="0.52"/>
    <circle cx="1088" cy="299" r="2.4" opacity="0.32"/>
    <circle cx="810" cy="54" r="1.8" opacity="0.51"/>
    <circle cx="1267" cy="282" r="2.4" opacity="0.35"/>
    <circle cx="702" cy="620" r="1.8" opacity="0.25"/>
    <circle cx="201" cy="352" r="2.4" opacity="0.14"/>
    <circle cx="1153" cy="359" r="1.8" opacity="0.59"/>
    <circle cx="778" cy="3" r="1.8" opacity="0.54"/>
    <circle cx="940" cy="105" r="1" opacity="0.45"/>
    <circle cx="762" cy="688" r="2.4" opacity="0.18"/>
    <circle cx="933" cy="108" r="1" opacity="0.55"/>
    <circle cx="624" cy="123" r="1" opacity="0.31"/>
    <circle cx="122" cy="422" r="1.4" opacity="0.33"/>
    <circle cx="54" cy="183" r="2.4" opacity="0.5"/>
    <circle cx="211" cy="505" r="1.4" opacity="0.5"/>
    <circle cx="1052" cy="100" r="2.4" opacity="0.22"/>
    <circle cx="1113" cy="455" r="1" opacity="0.57"/>
    <circle cx="428" cy="408" r="1" opacity="0.23"/>
    <circle cx="469" cy="556" r="2.4" opacity="0.57"/>
    <circle cx="927" cy="192" r="1" opacity="0.58"/>
    <circle cx="201" cy="453" r="2.4" opacity="0.37"/>
    <circle cx="428" cy="604" r="0.8" opacity="0.58"/>
    <circle cx="733" cy="429" r="2.4" opacity="0.23"/>
    <circle cx="411" cy="378" r="1.4" opacity="0.12"/>
    <circle cx="347" cy="52" r="1.8" opacity="0.26"/>
    <circle cx="590" cy="123" r="0.8" opacity="0.29"/>
    <circle cx="971" cy="632" r="0.8" opacity="0.52"/>
    <circle cx="773" cy="438" r="0.8" opacity="0.27"/>
    <circle cx="23" cy="137" r="1" opacity="0.45"/>
    <circle cx="1002" cy="125" r="1.4" opacity="0.47"/>
    <circle cx="939" cy="408" r="0.8" opacity="0.11"/>
    <circle cx="1150" cy="91" r="1" opacity="0.27"/>
    <circle cx="588" cy="572" r="2.4" opacity="0.12"/>
    <circle cx="685" cy="459" r="1.4" opacity="0.29"/>
    <circle cx="868" cy="73" r="0.8" opacity="0.16"/>
    <circle cx="1164" cy="370" r="0.8" opacity="0.12"/>
    <circle cx="410" cy="433" r="1" opacity="0.14"/>
    <circle cx="768" cy="307" r="0.8" opacity="0.48"/>
    <circle cx="1167" cy="326" r="1" opacity="0.23"/>
    <circle cx="1004" cy="283" r="1" opacity="0.2"/>
    <circle cx="902" cy="379" r="0.8" opacity="0.45"/>
    <circle cx="363" cy="696" r="1.8" opacity="0.54"/>
    <circle cx="746" cy="429" r="2.4" opacity="0.18"/>
    <circle cx="873" cy="227" r="0.8" opacity="0.2"/>
    <circle cx="547" cy="514" r="1" opacity="0.1"/>
    <circle cx="378" cy="42" r="1.4" opacity="0.33"/>
    <circle cx="583" cy="567" r="1.4" opacity="0.36"/>
    <circle cx="1014" cy="46" r="1.8" opacity="0.44"/>
    <circle cx="673" cy="261" r="1.8" opacity="0.58"/>
    <circle cx="759" cy="272" r="2.4" opacity="0.58"/>
    <circle cx="360" cy="299" r="1" opacity="0.55"/>
    <circle cx="439" cy="216" r="2.4" opacity="0.53"/>
    <circle cx="169" cy="368" r="1" opacity="0.19"/>
    <circle cx="289" cy="287" r="1.8" opacity="0.33"/>
    <circle cx="282" cy="351" r="1" opacity="0.39"/>
    <circle cx="23" cy="486" r="1.8" opacity="0.44"/>
    <circle cx="848" cy="627" r="0.8" opacity="0.34"/>
    <circle cx="275" cy="468" r="1.4" opacity="0.24"/>
    <circle cx="114" cy="136" r="1.8" opacity="0.39"/>
    <circle cx="1263" cy="319" r="2.4" opacity="0.59"/>
    <circle cx="151" cy="65" r="1" opacity="0.35"/>
    <circle cx="749" cy="316" r="2.4" opacity="0.11"/>
    <circle cx="412" cy="76" r="1" opacity="0.51"/>
    <circle cx="271" cy="367" r="1.4" opacity="0.4"/>
    <circle cx="268" cy="153" r="0.8" opacity="0.26"/>
    <circle cx="523" cy="165" r="0.8" opacity="0.33"/>
    <circle cx="1094" cy="550" r="1.8" opacity="0.3"/>
  </g>
  <g stroke="#38f0c0" stroke-width="1.2" fill="none" opacity="0.16" stroke-linecap="round">
    <path d="M 0 47 L 68 167 L 122 236 L 197 179 L 298 122"/>
    <circle cx="298" cy="122" r="3" fill="#38f0c0" stroke="none"/>
    <path d="M 1280 137 L 1207 186 L 1162 92"/>
    <circle cx="1162" cy="92" r="3" fill="#38f0c0" stroke="none"/>
    <path d="M 1187 720 L 1117 619 L 1045 542"/>
    <circle cx="1045" cy="542" r="3" fill="#38f0c0" stroke="none"/>
    <path d="M 0 149 L 119 254 L 177 150 L 281 90"/>
    <circle cx="281" cy="90" r="3" fill="#38f0c0" stroke="none"/>
    <path d="M 1280 188 L 1163 264 L 1067 381 L 1008 466 L 941 377"/>
    <circle cx="941" cy="377" r="3" fill="#38f0c0" stroke="none"/>
    <path d="M 464 0 L 390 68 L 271 161"/>
    <circle cx="271" cy="161" r="3" fill="#38f0c0" stroke="none"/>
    <path d="M 399 720 L 313 630 L 272 572"/>
    <circle cx="272" cy="572" r="3" fill="#38f0c0" stroke="none"/>
    <path d="M 1157 720 L 1230 629 L 1319 550 L 1215 484"/>
    <circle cx="1215" cy="484" r="3" fill="#38f0c0" stroke="none"/>
    <path d="M 1280 22 L 1166 111 L 1066 14 L 1012 -64 L 958 1"/>
    <circle cx="958" cy="1" r="3" fill="#38f0c0" stroke="none"/>
    <path d="M 1280 114 L 1183 226 L 1063 337 L 992 283 L 872 376"/>
    <circle cx="872" cy="376" r="3" fill="#38f0c0" stroke="none"/>
    <path d="M 0 640 L 115 725 L 213 796 L 287 710 L 398 610"/>
    <circle cx="398" cy="610" r="3" fill="#38f0c0" stroke="none"/>
    <path d="M 654 0 L 771 67 L 687 109 L 598 166 L 642 266"/>
    <circle cx="642" cy="266" r="3" fill="#38f0c0" stroke="none"/>
    <path d="M 1280 399 L 1193 440 L 1089 358 L 975 403 L 929 444"/>
    <circle cx="929" cy="444" r="3" fill="#38f0c0" stroke="none"/>
    <path d="M 0 594 L 101 484 L 150 536 L 241 457"/>
    <circle cx="241" cy="457" r="3" fill="#38f0c0" stroke="none"/>
  </g>
  <g opacity="0.5">
    <line x1="886.0" y1="297.0" x2="852.0" y2="372.0" stroke="#22d3ee" stroke-width="0.8" opacity="0.35"/>
    <line x1="601.0" y1="368.0" x2="680.0" y2="368.0" stroke="#22d3ee" stroke-width="0.8" opacity="0.35"/>
    <line x1="601.0" y1="368.0" x2="408.0" y2="452.0" stroke="#22d3ee" stroke-width="0.8" opacity="0.35"/>
    <line x1="601.0" y1="368.0" x2="446.0" y2="411.0" stroke="#22d3ee" stroke-width="0.8" opacity="0.35"/>
    <line x1="601.0" y1="368.0" x2="551.0" y2="375.0" stroke="#22d3ee" stroke-width="0.8" opacity="0.35"/>
    <line x1="680.0" y1="368.0" x2="852.0" y2="372.0" stroke="#22d3ee" stroke-width="0.8" opacity="0.35"/>
    <line x1="746.0" y1="387.0" x2="852.0" y2="372.0" stroke="#22d3ee" stroke-width="0.8" opacity="0.35"/>
    <line x1="446.0" y1="411.0" x2="551.0" y2="375.0" stroke="#22d3ee" stroke-width="0.8" opacity="0.35"/>
    <line x1="446.0" y1="411.0" x2="386.0" y2="461.0" stroke="#22d3ee" stroke-width="0.8" opacity="0.35"/>
    <line x1="551.0" y1="375.0" x2="386.0" y2="461.0" stroke="#22d3ee" stroke-width="0.8" opacity="0.35"/>
    <circle cx="886.0" cy="297.0" r="2" fill="#22d3ee" opacity="0.7"/>
    <circle cx="601.0" cy="368.0" r="3" fill="#22d3ee" opacity="0.7"/>
    <circle cx="680.0" cy="368.0" r="2.5" fill="#22d3ee" opacity="0.7"/>
    <circle cx="408.0" cy="452.0" r="2.5" fill="#22d3ee" opacity="0.7"/>
    <circle cx="746.0" cy="387.0" r="2" fill="#22d3ee" opacity="0.7"/>
    <circle cx="446.0" cy="411.0" r="3" fill="#22d3ee" opacity="0.7"/>
    <circle cx="852.0" cy="372.0" r="2.5" fill="#22d3ee" opacity="0.7"/>
    <circle cx="551.0" cy="375.0" r="2" fill="#22d3ee" opacity="0.7"/>
    <circle cx="386.0" cy="461.0" r="2.5" fill="#22d3ee" opacity="0.7"/>
  </g>
  <g filter="url(#glow)">
<rect x="362.0" y="298.0" width="90" height="44" rx="22.0" fill="none" stroke="#38f0c0" stroke-width="6" transform="rotate(30 407.0 320.0)" filter="url(#glow)"/><rect x="502.0" y="368.0" width="90" height="44" rx="22.0" fill="none" stroke="#22d3ee" stroke-width="6" transform="rotate(-30 547.0 390.0)" filter="url(#glow)"/><rect x="662.0" y="298.0" width="90" height="44" rx="22.0" fill="none" stroke="#3b82f6" stroke-width="6" transform="rotate(30 707.0 320.0)" filter="url(#glow)"/><rect x="822.0" y="368.0" width="90" height="44" rx="22.0" fill="none" stroke="#38f0c0" stroke-width="6" transform="rotate(-30 867.0 390.0)" filter="url(#glow)"/><line x1="430.0" y1="320.0" x2="510.0" y2="390.0" stroke="#22d3ee" stroke-width="3" opacity="0.6"/><line x1="570.0" y1="390.0" x2="670.0" y2="320.0" stroke="#22d3ee" stroke-width="3" opacity="0.6"/><line x1="730.0" y1="320.0" x2="830.0" y2="390.0" stroke="#22d3ee" stroke-width="3" opacity="0.6"/><g filter="url(#glow)"><path d="M 630.0 168.0 C 577.0 159.6 568.6 235.2 602.2 252.0 C 627.4 262.5 630.0 239.4 630.0 239.4 Z" fill="none" stroke="#3b82f6" stroke-width="3"/><path d="M 650.0 168.0 C 703.0 159.6 711.4 235.2 677.8 252.0 C 652.6 262.5 650.0 239.4 650.0 239.4 Z" fill="none" stroke="#3b82f6" stroke-width="3"/><line x1="640.0" y1="172.2" x2="640.0" y2="241.5" stroke="#3b82f6" stroke-width="2.5"/><path d="M 653.0 234.0 H 625.0 V 246.0" fill="none" stroke="#22d3ee" stroke-width="1.6" opacity="0.8"/><circle cx="625.0" cy="234.0" r="2.2" fill="#22d3ee"/><path d="M 604.0 213.0 H 591.0 V 220.0" fill="none" stroke="#22d3ee" stroke-width="1.6" opacity="0.8"/><circle cx="591.0" cy="213.0" r="2.2" fill="#22d3ee"/><path d="M 626.0 208.0 H 649.0 V 211.0" fill="none" stroke="#22d3ee" stroke-width="1.6" opacity="0.8"/><circle cx="649.0" cy="208.0" r="2.2" fill="#22d3ee"/><path d="M 689.0 227.0 H 671.0 V 221.0" fill="none" stroke="#22d3ee" stroke-width="1.6" opacity="0.8"/><circle cx="671.0" cy="227.0" r="2.2" fill="#22d3ee"/><path d="M 634.0 196.0 H 648.0 V 199.0" fill="none" stroke="#22d3ee" stroke-width="1.6" opacity="0.8"/><circle cx="648.0" cy="196.0" r="2.2" fill="#22d3ee"/><path d="M 617.0 237.0 H 640.0 V 225.0" fill="none" stroke="#22d3ee" stroke-width="1.6" opacity="0.8"/><circle cx="640.0" cy="237.0" r="2.2" fill="#22d3ee"/><path d="M 628.0 221.0 H 611.0 V 209.0" fill="none" stroke="#22d3ee" stroke-width="1.6" opacity="0.8"/><circle cx="611.0" cy="221.0" r="2.2" fill="#22d3ee"/><path d="M 620.0 193.0 H 595.0 V 190.0" fill="none" stroke="#22d3ee" stroke-width="1.6" opacity="0.8"/><circle cx="595.0" cy="193.0" r="2.2" fill="#22d3ee"/><path d="M 669.0 246.0 H 691.0 V 243.0" fill="none" stroke="#22d3ee" stroke-width="1.6" opacity="0.8"/><circle cx="691.0" cy="246.0" r="2.2" fill="#22d3ee"/><path d="M 641.0 195.0 H 626.0 V 204.0" fill="none" stroke="#22d3ee" stroke-width="1.6" opacity="0.8"/><circle cx="626.0" cy="195.0" r="2.2" fill="#22d3ee"/></g>
  </g>
</svg>
