<svg xmlns="http://www.w3.org/2000/svg" viewBox="0 0 800 500" role="img" aria-label="">
<defs>
  <linearGradient id="lg" x1="0" y1="0" x2="1" y2="1">
    <stop offset="0" stop-color="hsl(163 85% 62%)"/><stop offset="1" stop-color="hsl(246 85% 60%)"/>
  </linearGradient>
  <radialGradient id="bg" cx="0.3" cy="0.2" r="1.1">
    <stop offset="0" stop-color="#141830"/><stop offset="1" stop-color="#0b0d18"/>
  </radialGradient>
  <filter id="blur" x="-60%" y="-60%" width="220%" height="220%">
    <feGaussianBlur stdDeviation="46"/>
  </filter>
</defs>
<rect width="800" height="500" fill="url(#bg)"/>
<circle cx="170" cy="117" r="131" fill="hsl(246 85% 60%)" fill-opacity="0.13" filter="url(#blur)"/><circle cx="322" cy="95" r="225" fill="hsl(163 85% 62%)" fill-opacity="0.13" filter="url(#blur)"/><circle cx="169" cy="403" r="280" fill="hsl(246 85% 60%)" fill-opacity="0.13" filter="url(#blur)"/>
<path d="M 0 325 L 0 350.1 L 40 342.7 L 80 314.9 L 120 307.8 L 160 310.0 L 200 318.4 L 240 320.5 L 280 323.4 L 320 319.2 L 360 321.3 L 400 326.4 L 440 318.5 L 480 349.4 L 520 308.4 L 560 294.2 L 600 324.9 L 640 333.0 L 680 296.9 L 720 338.0 L 760 343.6 L 800 300.8" fill="none" stroke="url(#lg)" stroke-opacity="0.5" stroke-width="1.6"/>
<line x1="616.0" y1="136.6" x2="645.0" y2="201.8" stroke="url(#lg)" stroke-opacity="0.178" stroke-width="1"/><line x1="616.0" y1="136.6" x2="631.4" y2="85.6" stroke="url(#lg)" stroke-opacity="0.219" stroke-width="1"/><line x1="616.0" y1="136.6" x2="625.1" y2="89.4" stroke="url(#lg)" stroke-opacity="0.231" stroke-width="1"/><line x1="616.0" y1="136.6" x2="627.0" y2="74.0" stroke="url(#lg)" stroke-opacity="0.196" stroke-width="1"/><line x1="616.0" y1="136.6" x2="588.6" y2="148.8" stroke="url(#lg)" stroke-opacity="0.272" stroke-width="1"/><line x1="616.0" y1="136.6" x2="622.4" y2="227.6" stroke="url(#lg)" stroke-opacity="0.133" stroke-width="1"/><line x1="616.0" y1="136.6" x2="658.9" y2="95.3" stroke="url(#lg)" stroke-opacity="0.205" stroke-width="1"/><line x1="616.0" y1="136.6" x2="483.9" y2="146.6" stroke="url(#lg)" stroke-opacity="0.040" stroke-width="1"/><line x1="616.0" y1="136.6" x2="551.7" y2="144.8" stroke="url(#lg)" stroke-opacity="0.193" stroke-width="1"/><line x1="616.0" y1="136.6" x2="617.2" y2="132.3" stroke="url(#lg)" stroke-opacity="0.330" stroke-width="1"/><line x1="645.0" y1="201.8" x2="631.4" y2="85.6" stroke="url(#lg)" stroke-opacity="0.075" stroke-width="1"/><line x1="645.0" y1="201.8" x2="625.1" y2="89.4" stroke="url(#lg)" stroke-opacity="0.081" stroke-width="1"/><line x1="645.0" y1="201.8" x2="627.0" y2="74.0" stroke="url(#lg)" stroke-opacity="0.047" stroke-width="1"/><line x1="645.0" y1="201.8" x2="717.0" y2="268.3" stroke="url(#lg)" stroke-opacity="0.118" stroke-width="1"/><line x1="645.0" y1="201.8" x2="588.6" y2="148.8" stroke="url(#lg)" stroke-opacity="0.165" stroke-width="1"/><line x1="645.0" y1="201.8" x2="590.3" y2="339.1" stroke="url(#lg)" stroke-opacity="0.005" stroke-width="1"/><line x1="645.0" y1="201.8" x2="622.4" y2="227.6" stroke="url(#lg)" stroke-opacity="0.262" stroke-width="1"/><line x1="645.0" y1="201.8" x2="658.9" y2="95.3" stroke="url(#lg)" stroke-opacity="0.097" stroke-width="1"/><line x1="645.0" y1="201.8" x2="551.7" y2="144.8" stroke="url(#lg)" stroke-opacity="0.092" stroke-width="1"/><line x1="645.0" y1="201.8" x2="617.2" y2="132.3" stroke="url(#lg)" stroke-opacity="0.170" stroke-width="1"/><line x1="631.4" y1="85.6" x2="625.1" y2="89.4" stroke="url(#lg)" stroke-opacity="0.323" stroke-width="1"/><line x1="631.4" y1="85.6" x2="627.0" y2="74.0" stroke="url(#lg)" stroke-opacity="0.312" stroke-width="1"/><line x1="631.4" y1="85.6" x2="588.6" y2="148.8" stroke="url(#lg)" stroke-opacity="0.167" stroke-width="1"/><line x1="631.4" y1="85.6" x2="622.4" y2="227.6" stroke="url(#lg)" stroke-opacity="0.017" stroke-width="1"/><line x1="631.4" y1="85.6" x2="658.9" y2="95.3" stroke="url(#lg)" stroke-opacity="0.274" stroke-width="1"/><line x1="631.4" y1="85.6" x2="551.7" y2="144.8" stroke="url(#lg)" stroke-opacity="0.115" stroke-width="1"/><line x1="631.4" y1="85.6" x2="617.2" y2="132.3" stroke="url(#lg)" stroke-opacity="0.229" stroke-width="1"/><line x1="118.5" y1="176.5" x2="105.1" y2="185.3" stroke="url(#lg)" stroke-opacity="0.304" stroke-width="1"/><line x1="118.5" y1="176.5" x2="54.8" y2="141.7" stroke="url(#lg)" stroke-opacity="0.175" stroke-width="1"/><line x1="118.5" y1="176.5" x2="195.4" y2="256.0" stroke="url(#lg)" stroke-opacity="0.089" stroke-width="1"/><line x1="118.5" y1="176.5" x2="73.7" y2="216.0" stroke="url(#lg)" stroke-opacity="0.205" stroke-width="1"/><line x1="118.5" y1="176.5" x2="143.6" y2="62.2" stroke="url(#lg)" stroke-opacity="0.075" stroke-width="1"/><line x1="118.5" y1="176.5" x2="220.5" y2="92.8" stroke="url(#lg)" stroke-opacity="0.041" stroke-width="1"/><line x1="118.5" y1="176.5" x2="240.7" y2="229.0" stroke="url(#lg)" stroke-opacity="0.039" stroke-width="1"/><line x1="625.1" y1="89.4" x2="627.0" y2="74.0" stroke="url(#lg)" stroke-opacity="0.305" stroke-width="1"/><line x1="625.1" y1="89.4" x2="588.6" y2="148.8" stroke="url(#lg)" stroke-opacity="0.182" stroke-width="1"/><line x1="625.1" y1="89.4" x2="622.4" y2="227.6" stroke="url(#lg)" stroke-opacity="0.027" stroke-width="1"/><line x1="625.1" y1="89.4" x2="658.9" y2="95.3" stroke="url(#lg)" stroke-opacity="0.262" stroke-width="1"/><line x1="625.1" y1="89.4" x2="551.7" y2="144.8" stroke="url(#lg)" stroke-opacity="0.132" stroke-width="1"/><line x1="625.1" y1="89.4" x2="617.2" y2="132.3" stroke="url(#lg)" stroke-opacity="0.241" stroke-width="1"/><line x1="267.5" y1="139.6" x2="195.4" y2="256.0" stroke="url(#lg)" stroke-opacity="0.030" stroke-width="1"/><line x1="267.5" y1="139.6" x2="287.8" y2="116.8" stroke="url(#lg)" stroke-opacity="0.271" stroke-width="1"/><line x1="267.5" y1="139.6" x2="349.1" y2="241.7" stroke="url(#lg)" stroke-opacity="0.044" stroke-width="1"/><line x1="267.5" y1="139.6" x2="143.6" y2="62.2" stroke="url(#lg)" stroke-opacity="0.009" stroke-width="1"/><line x1="267.5" y1="139.6" x2="220.5" y2="92.8" stroke="url(#lg)" stroke-opacity="0.190" stroke-width="1"/><line x1="267.5" y1="139.6" x2="240.7" y2="229.0" stroke="url(#lg)" stroke-opacity="0.128" stroke-width="1"/><line x1="105.1" y1="185.3" x2="54.8" y2="141.7" stroke="url(#lg)" stroke-opacity="0.189" stroke-width="1"/><line x1="105.1" y1="185.3" x2="195.4" y2="256.0" stroke="url(#lg)" stroke-opacity="0.080" stroke-width="1"/><line x1="105.1" y1="185.3" x2="73.7" y2="216.0" stroke="url(#lg)" stroke-opacity="0.241" stroke-width="1"/><line x1="105.1" y1="185.3" x2="143.6" y2="62.2" stroke="url(#lg)" stroke-opacity="0.048" stroke-width="1"/><line x1="105.1" y1="185.3" x2="220.5" y2="92.8" stroke="url(#lg)" stroke-opacity="0.005" stroke-width="1"/><line x1="105.1" y1="185.3" x2="240.7" y2="229.0" stroke="url(#lg)" stroke-opacity="0.017" stroke-width="1"/><line x1="54.8" y1="141.7" x2="73.7" y2="216.0" stroke="url(#lg)" stroke-opacity="0.166" stroke-width="1"/><line x1="54.8" y1="141.7" x2="143.6" y2="62.2" stroke="url(#lg)" stroke-opacity="0.070" stroke-width="1"/><line x1="627.0" y1="74.0" x2="588.6" y2="148.8" stroke="url(#lg)" stroke-opacity="0.149" stroke-width="1"/><line x1="627.0" y1="74.0" x2="658.9" y2="95.3" stroke="url(#lg)" stroke-opacity="0.253" stroke-width="1"/><line x1="627.0" y1="74.0" x2="551.7" y2="144.8" stroke="url(#lg)" stroke-opacity="0.106" stroke-width="1"/><line x1="627.0" y1="74.0" x2="617.2" y2="132.3" stroke="url(#lg)" stroke-opacity="0.206" stroke-width="1"/><line x1="346.1" y1="330.5" x2="349.1" y2="241.7" stroke="url(#lg)" stroke-opacity="0.139" stroke-width="1"/><line x1="346.1" y1="330.5" x2="360.6" y2="369.4" stroke="url(#lg)" stroke-opacity="0.246" stroke-width="1"/><line x1="346.1" y1="330.5" x2="446.2" y2="326.4" stroke="url(#lg)" stroke-opacity="0.113" stroke-width="1"/><line x1="346.1" y1="330.5" x2="240.7" y2="229.0" stroke="url(#lg)" stroke-opacity="0.008" stroke-width="1"/><line x1="346.1" y1="330.5" x2="385.1" y2="428.4" stroke="url(#lg)" stroke-opacity="0.101" stroke-width="1"/><line x1="346.1" y1="330.5" x2="449.0" y2="347.5" stroke="url(#lg)" stroke-opacity="0.104" stroke-width="1"/><line x1="195.4" y1="256.0" x2="73.7" y2="216.0" stroke="url(#lg)" stroke-opacity="0.050" stroke-width="1"/><line x1="195.4" y1="256.0" x2="68.0" y2="331.6" stroke="url(#lg)" stroke-opacity="0.004" stroke-width="1"/><line x1="195.4" y1="256.0" x2="240.7" y2="229.0" stroke="url(#lg)" stroke-opacity="0.221" stroke-width="1"/><line x1="73.7" y1="216.0" x2="68.0" y2="331.6" stroke="url(#lg)" stroke-opacity="0.078" stroke-width="1"/><line x1="667.7" y1="447.8" x2="566.8" y2="403.0" stroke="url(#lg)" stroke-opacity="0.090" stroke-width="1"/><line x1="667.7" y1="447.8" x2="590.3" y2="339.1" stroke="url(#lg)" stroke-opacity="0.037" stroke-width="1"/><line x1="454.4" y1="49.6" x2="483.9" y2="146.6" stroke="url(#lg)" stroke-opacity="0.110" stroke-width="1"/><line x1="454.4" y1="49.6" x2="551.7" y2="144.8" stroke="url(#lg)" stroke-opacity="0.031" stroke-width="1"/><line x1="717.0" y1="268.3" x2="590.3" y2="339.1" stroke="url(#lg)" stroke-opacity="0.011" stroke-width="1"/><line x1="717.0" y1="268.3" x2="622.4" y2="227.6" stroke="url(#lg)" stroke-opacity="0.107" stroke-width="1"/><line x1="287.8" y1="116.8" x2="349.1" y2="241.7" stroke="url(#lg)" stroke-opacity="0.025" stroke-width="1"/><line x1="287.8" y1="116.8" x2="220.5" y2="92.8" stroke="url(#lg)" stroke-opacity="0.178" stroke-width="1"/><line x1="287.8" y1="116.8" x2="240.7" y2="229.0" stroke="url(#lg)" stroke-opacity="0.064" stroke-width="1"/><line x1="566.8" y1="403.0" x2="590.3" y2="339.1" stroke="url(#lg)" stroke-opacity="0.186" stroke-width="1"/><line x1="566.8" y1="403.0" x2="446.2" y2="326.4" stroke="url(#lg)" stroke-opacity="0.016" stroke-width="1"/><line x1="566.8" y1="403.0" x2="449.0" y2="347.5" stroke="url(#lg)" stroke-opacity="0.045" stroke-width="1"/><line x1="588.6" y1="148.8" x2="622.4" y2="227.6" stroke="url(#lg)" stroke-opacity="0.146" stroke-width="1"/><line x1="588.6" y1="148.8" x2="658.9" y2="95.3" stroke="url(#lg)" stroke-opacity="0.140" stroke-width="1"/><line x1="588.6" y1="148.8" x2="483.9" y2="146.6" stroke="url(#lg)" stroke-opacity="0.103" stroke-width="1"/><line x1="588.6" y1="148.8" x2="551.7" y2="144.8" stroke="url(#lg)" stroke-opacity="0.256" stroke-width="1"/><line x1="588.6" y1="148.8" x2="617.2" y2="132.3" stroke="url(#lg)" stroke-opacity="0.265" stroke-width="1"/><line x1="349.1" y1="241.7" x2="360.6" y2="369.4" stroke="url(#lg)" stroke-opacity="0.049" stroke-width="1"/><line x1="349.1" y1="241.7" x2="446.2" y2="326.4" stroke="url(#lg)" stroke-opacity="0.048" stroke-width="1"/><line x1="349.1" y1="241.7" x2="240.7" y2="229.0" stroke="url(#lg)" stroke-opacity="0.092" stroke-width="1"/><line x1="349.1" y1="241.7" x2="449.0" y2="347.5" stroke="url(#lg)" stroke-opacity="0.010" stroke-width="1"/><line x1="590.3" y1="339.1" x2="622.4" y2="227.6" stroke="url(#lg)" stroke-opacity="0.077" stroke-width="1"/><line x1="590.3" y1="339.1" x2="446.2" y2="326.4" stroke="url(#lg)" stroke-opacity="0.012" stroke-width="1"/><line x1="590.3" y1="339.1" x2="449.0" y2="347.5" stroke="url(#lg)" stroke-opacity="0.019" stroke-width="1"/><line x1="622.4" y1="227.6" x2="658.9" y2="95.3" stroke="url(#lg)" stroke-opacity="0.029" stroke-width="1"/><line x1="622.4" y1="227.6" x2="551.7" y2="144.8" stroke="url(#lg)" stroke-opacity="0.093" stroke-width="1"/><line x1="622.4" y1="227.6" x2="617.2" y2="132.3" stroke="url(#lg)" stroke-opacity="0.124" stroke-width="1"/><line x1="143.6" y1="62.2" x2="220.5" y2="92.8" stroke="url(#lg)" stroke-opacity="0.152" stroke-width="1"/><line x1="220.5" y1="92.8" x2="240.7" y2="229.0" stroke="url(#lg)" stroke-opacity="0.028" stroke-width="1"/><line x1="658.9" y1="95.3" x2="551.7" y2="144.8" stroke="url(#lg)" stroke-opacity="0.072" stroke-width="1"/><line x1="658.9" y1="95.3" x2="617.2" y2="132.3" stroke="url(#lg)" stroke-opacity="0.214" stroke-width="1"/><line x1="483.9" y1="146.6" x2="551.7" y2="144.8" stroke="url(#lg)" stroke-opacity="0.186" stroke-width="1"/><line x1="483.9" y1="146.6" x2="617.2" y2="132.3" stroke="url(#lg)" stroke-opacity="0.036" stroke-width="1"/><line x1="360.6" y1="369.4" x2="446.2" y2="326.4" stroke="url(#lg)" stroke-opacity="0.123" stroke-width="1"/><line x1="360.6" y1="369.4" x2="385.1" y2="428.4" stroke="url(#lg)" stroke-opacity="0.195" stroke-width="1"/><line x1="360.6" y1="369.4" x2="449.0" y2="347.5" stroke="url(#lg)" stroke-opacity="0.134" stroke-width="1"/><line x1="446.2" y1="326.4" x2="385.1" y2="428.4" stroke="url(#lg)" stroke-opacity="0.071" stroke-width="1"/><line x1="446.2" y1="326.4" x2="449.0" y2="347.5" stroke="url(#lg)" stroke-opacity="0.292" stroke-width="1"/><line x1="551.7" y1="144.8" x2="617.2" y2="132.3" stroke="url(#lg)" stroke-opacity="0.189" stroke-width="1"/><line x1="385.1" y1="428.4" x2="449.0" y2="347.5" stroke="url(#lg)" stroke-opacity="0.106" stroke-width="1"/>
<circle cx="616.0" cy="136.6" r="4.2" fill="hsl(246 85% 60%)" fill-opacity="0.85"/><circle cx="645.0" cy="201.8" r="2.7" fill="hsl(163 85% 62%)" fill-opacity="0.69"/><circle cx="631.4" cy="85.6" r="4.8" fill="hsl(163 85% 62%)" fill-opacity="0.77"/><circle cx="118.5" cy="176.5" r="2.4" fill="hsl(246 85% 60%)" fill-opacity="0.78"/><circle cx="625.1" cy="89.4" r="2.0" fill="hsl(163 85% 62%)" fill-opacity="0.68"/><circle cx="267.5" cy="139.6" r="1.7" fill="hsl(163 85% 62%)" fill-opacity="0.98"/><circle cx="105.1" cy="185.3" r="2.6" fill="hsl(246 85% 60%)" fill-opacity="0.97"/><circle cx="54.8" cy="141.7" r="1.9" fill="hsl(163 85% 62%)" fill-opacity="0.83"/><circle cx="627.0" cy="74.0" r="3.3" fill="hsl(163 85% 62%)" fill-opacity="0.62"/><circle cx="346.1" cy="330.5" r="3.8" fill="hsl(246 85% 60%)" fill-opacity="0.72"/><circle cx="195.4" cy="256.0" r="1.6" fill="hsl(163 85% 62%)" fill-opacity="0.76"/><circle cx="73.7" cy="216.0" r="2.5" fill="hsl(163 85% 62%)" fill-opacity="0.86"/><circle cx="667.7" cy="447.8" r="2.3" fill="hsl(246 85% 60%)" fill-opacity="0.73"/><circle cx="454.4" cy="49.6" r="4.2" fill="hsl(163 85% 62%)" fill-opacity="0.69"/><circle cx="717.0" cy="268.3" r="3.4" fill="hsl(163 85% 62%)" fill-opacity="0.87"/><circle cx="287.8" cy="116.8" r="3.5" fill="hsl(246 85% 60%)" fill-opacity="0.86"/><circle cx="566.8" cy="403.0" r="2.6" fill="hsl(163 85% 62%)" fill-opacity="0.62"/><circle cx="588.6" cy="148.8" r="1.7" fill="hsl(163 85% 62%)" fill-opacity="0.77"/><circle cx="349.1" cy="241.7" r="3.1" fill="hsl(246 85% 60%)" fill-opacity="0.56"/><circle cx="590.3" cy="339.1" r="4.7" fill="hsl(163 85% 62%)" fill-opacity="0.94"/><circle cx="622.4" cy="227.6" r="3.8" fill="hsl(163 85% 62%)" fill-opacity="0.98"/><circle cx="143.6" cy="62.2" r="4.9" fill="hsl(246 85% 60%)" fill-opacity="0.72"/><circle cx="220.5" cy="92.8" r="1.6" fill="hsl(163 85% 62%)" fill-opacity="0.88"/><circle cx="658.9" cy="95.3" r="3.1" fill="hsl(163 85% 62%)" fill-opacity="0.72"/><circle cx="483.9" cy="146.6" r="2.9" fill="hsl(246 85% 60%)" fill-opacity="0.99"/><circle cx="360.6" cy="369.4" r="2.6" fill="hsl(163 85% 62%)" fill-opacity="0.60"/><circle cx="446.2" cy="326.4" r="2.8" fill="hsl(163 85% 62%)" fill-opacity="0.98"/><circle cx="68.0" cy="331.6" r="2.9" fill="hsl(246 85% 60%)" fill-opacity="0.79"/><circle cx="240.7" cy="229.0" r="2.8" fill="hsl(163 85% 62%)" fill-opacity="0.93"/><circle cx="551.7" cy="144.8" r="4.9" fill="hsl(163 85% 62%)" fill-opacity="0.80"/><circle cx="385.1" cy="428.4" r="2.5" fill="hsl(246 85% 60%)" fill-opacity="0.74"/><circle cx="449.0" cy="347.5" r="3.6" fill="hsl(163 85% 62%)" fill-opacity="0.84"/><circle cx="617.2" cy="132.3" r="2.3" fill="hsl(163 85% 62%)" fill-opacity="0.97"/>
</svg>