<svg xmlns="http://www.w3.org/2000/svg" viewBox="0 0 800 500" role="img" aria-label="">
<defs>
  <linearGradient id="lg" x1="0" y1="0" x2="1" y2="1">
    <stop offset="0" stop-color="hsl(115 85% 62%)"/><stop offset="1" stop-color="hsl(189 85% 60%)"/>
  </linearGradient>
  <radialGradient id="bg" cx="0.3" cy="0.2" r="1.1">
    <stop offset="0" stop-color="#141830"/><stop offset="1" stop-color="#0b0d18"/>
  </radialGradient>
  <filter id="blur" x="-60%" y="-60%" width="220%" height="220%">
    <feGaussianBlur stdDeviation="46"/>
  </filter>
</defs>
<rect width="800" height="500" fill="url(#bg)"/>
<circle cx="177" cy="168" r="186" fill="hsl(189 85% 60%)" fill-opacity="0.13" filter="url(#blur)"/><circle cx="394" cy="131" r="247" fill="hsl(115 85% 62%)" fill-opacity="0.13" filter="url(#blur)"/><circle cx="450" cy="478" r="274" fill="hsl(189 85% 60%)" fill-opacity="0.13" filter="url(#blur)"/>
<path d="M 0 278 L 0 280.7 L 40 297.6 L 80 271.6 L 120 263.6 L 160 263.9 L 200 263.2 L 240 244.4 L 280 257.4 L 320 312.0 L 360 267.1 L 400 305.8 L 440 311.2 L 480 273.3 L 520 265.4 L 560 272.9 L 600 273.1 L 640 294.8 L 680 277.1 L 720 266.3 L 760 281.0 L 800 256.7" fill="none" stroke="url(#lg)" stroke-opacity="0.5" stroke-width="1.6"/>
<line x1="313.6" y1="384.0" x2="424.9" y2="373.7" stroke="url(#lg)" stroke-opacity="0.086" stroke-width="1"/><line x1="313.6" y1="384.0" x2="371.2" y2="326.8" stroke="url(#lg)" stroke-opacity="0.156" stroke-width="1"/><line x1="313.6" y1="384.0" x2="352.4" y2="394.4" stroke="url(#lg)" stroke-opacity="0.249" stroke-width="1"/><line x1="313.6" y1="384.0" x2="327.1" y2="434.2" stroke="url(#lg)" stroke-opacity="0.222" stroke-width="1"/><line x1="424.9" y1="373.7" x2="371.2" y2="326.8" stroke="url(#lg)" stroke-opacity="0.178" stroke-width="1"/><line x1="424.9" y1="373.7" x2="405.1" y2="235.0" stroke="url(#lg)" stroke-opacity="0.022" stroke-width="1"/><line x1="424.9" y1="373.7" x2="352.4" y2="394.4" stroke="url(#lg)" stroke-opacity="0.169" stroke-width="1"/><line x1="424.9" y1="373.7" x2="327.1" y2="434.2" stroke="url(#lg)" stroke-opacity="0.079" stroke-width="1"/><line x1="437.6" y1="211.5" x2="431.9" y2="131.7" stroke="url(#lg)" stroke-opacity="0.159" stroke-width="1"/><line x1="437.6" y1="211.5" x2="432.1" y2="141.5" stroke="url(#lg)" stroke-opacity="0.181" stroke-width="1"/><line x1="437.6" y1="211.5" x2="371.2" y2="326.8" stroke="url(#lg)" stroke-opacity="0.038" stroke-width="1"/><line x1="437.6" y1="211.5" x2="405.1" y2="235.0" stroke="url(#lg)" stroke-opacity="0.249" stroke-width="1"/><line x1="437.6" y1="211.5" x2="327.8" y2="155.6" stroke="url(#lg)" stroke-opacity="0.061" stroke-width="1"/><line x1="437.6" y1="211.5" x2="448.5" y2="75.9" stroke="url(#lg)" stroke-opacity="0.032" stroke-width="1"/><line x1="437.6" y1="211.5" x2="306.8" y2="156.6" stroke="url(#lg)" stroke-opacity="0.019" stroke-width="1"/><line x1="118.9" y1="60.4" x2="196.9" y2="166.1" stroke="url(#lg)" stroke-opacity="0.042" stroke-width="1"/><line x1="431.9" y1="131.7" x2="432.1" y2="141.5" stroke="url(#lg)" stroke-opacity="0.318" stroke-width="1"/><line x1="431.9" y1="131.7" x2="405.1" y2="235.0" stroke="url(#lg)" stroke-opacity="0.098" stroke-width="1"/><line x1="431.9" y1="131.7" x2="327.8" y2="155.6" stroke="url(#lg)" stroke-opacity="0.098" stroke-width="1"/><line x1="431.9" y1="131.7" x2="448.5" y2="75.9" stroke="url(#lg)" stroke-opacity="0.208" stroke-width="1"/><line x1="431.9" y1="131.7" x2="418.9" y2="52.9" stroke="url(#lg)" stroke-opacity="0.159" stroke-width="1"/><line x1="431.9" y1="131.7" x2="320.5" y2="63.0" stroke="url(#lg)" stroke-opacity="0.043" stroke-width="1"/><line x1="431.9" y1="131.7" x2="575.6" y2="130.8" stroke="url(#lg)" stroke-opacity="0.014" stroke-width="1"/><line x1="431.9" y1="131.7" x2="306.8" y2="156.6" stroke="url(#lg)" stroke-opacity="0.051" stroke-width="1"/><line x1="432.1" y1="141.5" x2="405.1" y2="235.0" stroke="url(#lg)" stroke-opacity="0.119" stroke-width="1"/><line x1="432.1" y1="141.5" x2="327.8" y2="155.6" stroke="url(#lg)" stroke-opacity="0.101" stroke-width="1"/><line x1="432.1" y1="141.5" x2="448.5" y2="75.9" stroke="url(#lg)" stroke-opacity="0.187" stroke-width="1"/><line x1="432.1" y1="141.5" x2="418.9" y2="52.9" stroke="url(#lg)" stroke-opacity="0.137" stroke-width="1"/><line x1="432.1" y1="141.5" x2="320.5" y2="63.0" stroke="url(#lg)" stroke-opacity="0.031" stroke-width="1"/><line x1="432.1" y1="141.5" x2="575.6" y2="130.8" stroke="url(#lg)" stroke-opacity="0.014" stroke-width="1"/><line x1="432.1" y1="141.5" x2="306.8" y2="156.6" stroke="url(#lg)" stroke-opacity="0.054" stroke-width="1"/><line x1="371.2" y1="326.8" x2="405.1" y2="235.0" stroke="url(#lg)" stroke-opacity="0.118" stroke-width="1"/><line x1="371.2" y1="326.8" x2="352.4" y2="394.4" stroke="url(#lg)" stroke-opacity="0.181" stroke-width="1"/><line x1="371.2" y1="326.8" x2="327.1" y2="434.2" stroke="url(#lg)" stroke-opacity="0.077" stroke-width="1"/><line x1="405.1" y1="235.0" x2="327.8" y2="155.6" stroke="url(#lg)" stroke-opacity="0.089" stroke-width="1"/><line x1="405.1" y1="235.0" x2="306.8" y2="156.6" stroke="url(#lg)" stroke-opacity="0.055" stroke-width="1"/><line x1="327.8" y1="155.6" x2="196.9" y2="166.1" stroke="url(#lg)" stroke-opacity="0.042" stroke-width="1"/><line x1="327.8" y1="155.6" x2="448.5" y2="75.9" stroke="url(#lg)" stroke-opacity="0.012" stroke-width="1"/><line x1="327.8" y1="155.6" x2="418.9" y2="52.9" stroke="url(#lg)" stroke-opacity="0.029" stroke-width="1"/><line x1="327.8" y1="155.6" x2="320.5" y2="63.0" stroke="url(#lg)" stroke-opacity="0.129" stroke-width="1"/><line x1="327.8" y1="155.6" x2="306.8" y2="156.6" stroke="url(#lg)" stroke-opacity="0.292" stroke-width="1"/><line x1="196.9" y1="166.1" x2="133.7" y2="241.1" stroke="url(#lg)" stroke-opacity="0.118" stroke-width="1"/><line x1="196.9" y1="166.1" x2="306.8" y2="156.6" stroke="url(#lg)" stroke-opacity="0.090" stroke-width="1"/><line x1="84.7" y1="424.9" x2="141.5" y2="406.6" stroke="url(#lg)" stroke-opacity="0.205" stroke-width="1"/><line x1="84.7" y1="424.9" x2="99.4" y2="372.6" stroke="url(#lg)" stroke-opacity="0.217" stroke-width="1"/><line x1="709.5" y1="40.2" x2="736.9" y2="87.8" stroke="url(#lg)" stroke-opacity="0.215" stroke-width="1"/><line x1="709.5" y1="40.2" x2="700.5" y2="80.7" stroke="url(#lg)" stroke-opacity="0.246" stroke-width="1"/><line x1="709.5" y1="40.2" x2="604.1" y2="89.7" stroke="url(#lg)" stroke-opacity="0.076" stroke-width="1"/><line x1="736.9" y1="87.8" x2="700.5" y2="80.7" stroke="url(#lg)" stroke-opacity="0.256" stroke-width="1"/><line x1="736.9" y1="87.8" x2="604.1" y2="89.7" stroke="url(#lg)" stroke-opacity="0.039" stroke-width="1"/><line x1="700.5" y1="80.7" x2="604.1" y2="89.7" stroke="url(#lg)" stroke-opacity="0.121" stroke-width="1"/><line x1="700.5" y1="80.7" x2="575.6" y2="130.8" stroke="url(#lg)" stroke-opacity="0.035" stroke-width="1"/><line x1="448.5" y1="75.9" x2="418.9" y2="52.9" stroke="url(#lg)" stroke-opacity="0.255" stroke-width="1"/><line x1="448.5" y1="75.9" x2="320.5" y2="63.0" stroke="url(#lg)" stroke-opacity="0.048" stroke-width="1"/><line x1="448.5" y1="75.9" x2="575.6" y2="130.8" stroke="url(#lg)" stroke-opacity="0.026" stroke-width="1"/><line x1="141.5" y1="406.6" x2="99.4" y2="372.6" stroke="url(#lg)" stroke-opacity="0.217" stroke-width="1"/><line x1="352.4" y1="394.4" x2="327.1" y2="434.2" stroke="url(#lg)" stroke-opacity="0.233" stroke-width="1"/><line x1="133.7" y1="241.1" x2="99.4" y2="372.6" stroke="url(#lg)" stroke-opacity="0.032" stroke-width="1"/><line x1="743.5" y1="316.7" x2="646.1" y2="399.1" stroke="url(#lg)" stroke-opacity="0.051" stroke-width="1"/><line x1="743.5" y1="316.7" x2="660.0" y2="434.2" stroke="url(#lg)" stroke-opacity="0.013" stroke-width="1"/><line x1="604.1" y1="89.7" x2="623.9" y2="217.3" stroke="url(#lg)" stroke-opacity="0.047" stroke-width="1"/><line x1="604.1" y1="89.7" x2="575.6" y2="130.8" stroke="url(#lg)" stroke-opacity="0.226" stroke-width="1"/><line x1="418.9" y1="52.9" x2="320.5" y2="63.0" stroke="url(#lg)" stroke-opacity="0.116" stroke-width="1"/><line x1="623.9" y1="217.3" x2="575.6" y2="130.8" stroke="url(#lg)" stroke-opacity="0.115" stroke-width="1"/><line x1="320.5" y1="63.0" x2="306.8" y2="156.6" stroke="url(#lg)" stroke-opacity="0.126" stroke-width="1"/><line x1="646.1" y1="399.1" x2="660.0" y2="434.2" stroke="url(#lg)" stroke-opacity="0.254" stroke-width="1"/>
<circle cx="313.6" cy="384.0" r="3.2" fill="hsl(189 85% 60%)" fill-opacity="0.76"/><circle cx="424.9" cy="373.7" r="1.9" fill="hsl(115 85% 62%)" fill-opacity="0.83"/><circle cx="437.6" cy="211.5" r="4.9" fill="hsl(115 85% 62%)" fill-opacity="0.56"/><circle cx="118.9" cy="60.4" r="1.7" fill="hsl(189 85% 60%)" fill-opacity="0.66"/><circle cx="431.9" cy="131.7" r="2.0" fill="hsl(115 85% 62%)" fill-opacity="0.98"/><circle cx="432.1" cy="141.5" r="4.9" fill="hsl(115 85% 62%)" fill-opacity="0.84"/><circle cx="371.2" cy="326.8" r="4.4" fill="hsl(189 85% 60%)" fill-opacity="0.92"/><circle cx="405.1" cy="235.0" r="3.8" fill="hsl(115 85% 62%)" fill-opacity="0.63"/><circle cx="327.8" cy="155.6" r="4.3" fill="hsl(115 85% 62%)" fill-opacity="0.87"/><circle cx="196.9" cy="166.1" r="4.2" fill="hsl(189 85% 60%)" fill-opacity="0.65"/><circle cx="84.7" cy="424.9" r="4.0" fill="hsl(115 85% 62%)" fill-opacity="0.85"/><circle cx="709.5" cy="40.2" r="4.2" fill="hsl(115 85% 62%)" fill-opacity="0.76"/><circle cx="736.9" cy="87.8" r="3.6" fill="hsl(189 85% 60%)" fill-opacity="0.67"/><circle cx="700.5" cy="80.7" r="1.8" fill="hsl(115 85% 62%)" fill-opacity="0.83"/><circle cx="448.5" cy="75.9" r="4.8" fill="hsl(115 85% 62%)" fill-opacity="0.66"/><circle cx="141.5" cy="406.6" r="1.9" fill="hsl(189 85% 60%)" fill-opacity="0.62"/><circle cx="352.4" cy="394.4" r="4.1" fill="hsl(115 85% 62%)" fill-opacity="0.78"/><circle cx="133.7" cy="241.1" r="2.4" fill="hsl(115 85% 62%)" fill-opacity="0.93"/><circle cx="743.5" cy="316.7" r="4.9" fill="hsl(189 85% 60%)" fill-opacity="0.94"/><circle cx="99.4" cy="372.6" r="3.6" fill="hsl(115 85% 62%)" fill-opacity="0.65"/><circle cx="604.1" cy="89.7" r="3.2" fill="hsl(115 85% 62%)" fill-opacity="0.56"/><circle cx="418.9" cy="52.9" r="3.2" fill="hsl(189 85% 60%)" fill-opacity="0.98"/><circle cx="623.9" cy="217.3" r="4.6" fill="hsl(115 85% 62%)" fill-opacity="0.56"/><circle cx="327.1" cy="434.2" r="2.6" fill="hsl(115 85% 62%)" fill-opacity="0.90"/><circle cx="320.5" cy="63.0" r="1.7" fill="hsl(189 85% 60%)" fill-opacity="0.96"/><circle cx="575.6" cy="130.8" r="4.5" fill="hsl(115 85% 62%)" fill-opacity="0.58"/><circle cx="646.1" cy="399.1" r="2.5" fill="hsl(115 85% 62%)" fill-opacity="0.94"/><circle cx="660.0" cy="434.2" r="2.6" fill="hsl(189 85% 60%)" fill-opacity="0.73"/><circle cx="306.8" cy="156.6" r="3.7" fill="hsl(115 85% 62%)" fill-opacity="0.58"/>
</svg>