<svg xmlns="http://www.w3.org/2000/svg" viewBox="0 0 800 500" role="img" aria-label="">
<defs>
  <linearGradient id="lg" x1="0" y1="0" x2="1" y2="1">
    <stop offset="0" stop-color="hsl(32 85% 62%)"/><stop offset="1" stop-color="hsl(118 85% 60%)"/>
  </linearGradient>
  <radialGradient id="bg" cx="0.3" cy="0.2" r="1.1">
    <stop offset="0" stop-color="#141830"/><stop offset="1" stop-color="#0b0d18"/>
  </radialGradient>
  <filter id="blur" x="-60%" y="-60%" width="220%" height="220%">
    <feGaussianBlur stdDeviation="46"/>
  </filter>
</defs>
<rect width="800" height="500" fill="url(#bg)"/>
<circle cx="579" cy="288" r="169" fill="hsl(118 85% 60%)" fill-opacity="0.13" filter="url(#blur)"/><circle cx="95" cy="442" r="234" fill="hsl(32 85% 62%)" fill-opacity="0.13" filter="url(#blur)"/><circle cx="411" cy="199" r="189" fill="hsl(118 85% 60%)" fill-opacity="0.13" filter="url(#blur)"/>
<path d="M 0 362 L 0 336.8 L 40 372.2 L 80 342.6 L 120 350.4 L 160 371.9 L 200 369.2 L 240 355.6 L 280 394.0 L 320 352.9 L 360 358.4 L 400 335.0 L 440 377.5 L 480 383.1 L 520 347.8 L 560 332.5 L 600 358.0 L 640 376.1 L 680 354.7 L 720 367.3 L 760 379.9 L 800 390.3" fill="none" stroke="url(#lg)" stroke-opacity="0.5" stroke-width="1.6"/>
<line x1="322.9" y1="372.2" x2="333.7" y2="395.0" stroke="url(#lg)" stroke-opacity="0.283" stroke-width="1"/><line x1="322.9" y1="372.2" x2="418.9" y2="264.2" stroke="url(#lg)" stroke-opacity="0.012" stroke-width="1"/><line x1="322.9" y1="372.2" x2="228.9" y2="448.1" stroke="url(#lg)" stroke-opacity="0.066" stroke-width="1"/><line x1="322.9" y1="372.2" x2="206.8" y2="375.2" stroke="url(#lg)" stroke-opacity="0.077" stroke-width="1"/><line x1="322.9" y1="372.2" x2="297.9" y2="333.9" stroke="url(#lg)" stroke-opacity="0.236" stroke-width="1"/><line x1="322.9" y1="372.2" x2="316.5" y2="365.6" stroke="url(#lg)" stroke-opacity="0.319" stroke-width="1"/><line x1="322.9" y1="372.2" x2="355.4" y2="438.9" stroke="url(#lg)" stroke-opacity="0.172" stroke-width="1"/><line x1="322.9" y1="372.2" x2="422.1" y2="422.4" stroke="url(#lg)" stroke-opacity="0.088" stroke-width="1"/><line x1="322.9" y1="372.2" x2="365.0" y2="420.1" stroke="url(#lg)" stroke-opacity="0.195" stroke-width="1"/><line x1="746.0" y1="133.3" x2="718.6" y2="59.7" stroke="url(#lg)" stroke-opacity="0.162" stroke-width="1"/><line x1="746.0" y1="133.3" x2="749.4" y2="165.2" stroke="url(#lg)" stroke-opacity="0.267" stroke-width="1"/><line x1="746.0" y1="133.3" x2="618.7" y2="145.3" stroke="url(#lg)" stroke-opacity="0.050" stroke-width="1"/><line x1="142.5" y1="271.9" x2="117.3" y2="263.5" stroke="url(#lg)" stroke-opacity="0.280" stroke-width="1"/><line x1="142.5" y1="271.9" x2="206.8" y2="375.2" stroke="url(#lg)" stroke-opacity="0.064" stroke-width="1"/><line x1="142.5" y1="271.9" x2="210.7" y2="249.9" stroke="url(#lg)" stroke-opacity="0.178" stroke-width="1"/><line x1="142.5" y1="271.9" x2="64.2" y2="148.0" stroke="url(#lg)" stroke-opacity="0.008" stroke-width="1"/><line x1="142.5" y1="271.9" x2="72.4" y2="251.9" stroke="url(#lg)" stroke-opacity="0.175" stroke-width="1"/><line x1="142.5" y1="271.9" x2="91.5" y2="394.0" stroke="url(#lg)" stroke-opacity="0.040" stroke-width="1"/><line x1="142.5" y1="271.9" x2="146.1" y2="142.8" stroke="url(#lg)" stroke-opacity="0.047" stroke-width="1"/><line x1="142.5" y1="271.9" x2="83.1" y2="197.7" stroke="url(#lg)" stroke-opacity="0.125" stroke-width="1"/><line x1="142.5" y1="271.9" x2="224.4" y2="243.6" stroke="url(#lg)" stroke-opacity="0.144" stroke-width="1"/><line x1="333.7" y1="395.0" x2="228.9" y2="448.1" stroke="url(#lg)" stroke-opacity="0.074" stroke-width="1"/><line x1="333.7" y1="395.0" x2="206.8" y2="375.2" stroke="url(#lg)" stroke-opacity="0.049" stroke-width="1"/><line x1="333.7" y1="395.0" x2="297.9" y2="333.9" stroke="url(#lg)" stroke-opacity="0.179" stroke-width="1"/><line x1="333.7" y1="395.0" x2="316.5" y2="365.6" stroke="url(#lg)" stroke-opacity="0.263" stroke-width="1"/><line x1="333.7" y1="395.0" x2="355.4" y2="438.9" stroke="url(#lg)" stroke-opacity="0.229" stroke-width="1"/><line x1="333.7" y1="395.0" x2="422.1" y2="422.4" stroke="url(#lg)" stroke-opacity="0.130" stroke-width="1"/><line x1="333.7" y1="395.0" x2="365.0" y2="420.1" stroke="url(#lg)" stroke-opacity="0.249" stroke-width="1"/><line x1="117.3" y1="263.5" x2="206.8" y2="375.2" stroke="url(#lg)" stroke-opacity="0.016" stroke-width="1"/><line x1="117.3" y1="263.5" x2="210.7" y2="249.9" stroke="url(#lg)" stroke-opacity="0.126" stroke-width="1"/><line x1="117.3" y1="263.5" x2="64.2" y2="148.0" stroke="url(#lg)" stroke-opacity="0.052" stroke-width="1"/><line x1="117.3" y1="263.5" x2="72.4" y2="251.9" stroke="url(#lg)" stroke-opacity="0.235" stroke-width="1"/><line x1="117.3" y1="263.5" x2="91.5" y2="394.0" stroke="url(#lg)" stroke-opacity="0.038" stroke-width="1"/><line x1="117.3" y1="263.5" x2="146.1" y2="142.8" stroke="url(#lg)" stroke-opacity="0.059" stroke-width="1"/><line x1="117.3" y1="263.5" x2="83.1" y2="197.7" stroke="url(#lg)" stroke-opacity="0.172" stroke-width="1"/><line x1="117.3" y1="263.5" x2="224.4" y2="243.6" stroke="url(#lg)" stroke-opacity="0.093" stroke-width="1"/><line x1="130.9" y1="62.4" x2="64.2" y2="148.0" stroke="url(#lg)" stroke-opacity="0.094" stroke-width="1"/><line x1="130.9" y1="62.4" x2="146.1" y2="142.8" stroke="url(#lg)" stroke-opacity="0.155" stroke-width="1"/><line x1="130.9" y1="62.4" x2="83.1" y2="197.7" stroke="url(#lg)" stroke-opacity="0.015" stroke-width="1"/><line x1="492.8" y1="226.5" x2="523.0" y2="298.7" stroke="url(#lg)" stroke-opacity="0.162" stroke-width="1"/><line x1="492.8" y1="226.5" x2="418.9" y2="264.2" stroke="url(#lg)" stroke-opacity="0.152" stroke-width="1"/><line x1="492.8" y1="226.5" x2="541.7" y2="90.5" stroke="url(#lg)" stroke-opacity="0.013" stroke-width="1"/><line x1="492.8" y1="226.5" x2="618.7" y2="145.3" stroke="url(#lg)" stroke-opacity="0.000" stroke-width="1"/><line x1="492.8" y1="226.5" x2="529.5" y2="315.8" stroke="url(#lg)" stroke-opacity="0.121" stroke-width="1"/><line x1="492.8" y1="226.5" x2="581.9" y2="125.7" stroke="url(#lg)" stroke-opacity="0.035" stroke-width="1"/><line x1="183.9" y1="434.6" x2="228.9" y2="448.1" stroke="url(#lg)" stroke-opacity="0.233" stroke-width="1"/><line x1="183.9" y1="434.6" x2="206.8" y2="375.2" stroke="url(#lg)" stroke-opacity="0.196" stroke-width="1"/><line x1="183.9" y1="434.6" x2="316.5" y2="365.6" stroke="url(#lg)" stroke-opacity="0.001" stroke-width="1"/><line x1="183.9" y1="434.6" x2="118.2" y2="425.4" stroke="url(#lg)" stroke-opacity="0.190" stroke-width="1"/><line x1="183.9" y1="434.6" x2="91.5" y2="394.0" stroke="url(#lg)" stroke-opacity="0.111" stroke-width="1"/><line x1="523.0" y1="298.7" x2="418.9" y2="264.2" stroke="url(#lg)" stroke-opacity="0.091" stroke-width="1"/><line x1="523.0" y1="298.7" x2="529.5" y2="315.8" stroke="url(#lg)" stroke-opacity="0.299" stroke-width="1"/><line x1="418.9" y1="264.2" x2="297.9" y2="333.9" stroke="url(#lg)" stroke-opacity="0.023" stroke-width="1"/><line x1="418.9" y1="264.2" x2="316.5" y2="365.6" stroke="url(#lg)" stroke-opacity="0.013" stroke-width="1"/><line x1="418.9" y1="264.2" x2="529.5" y2="315.8" stroke="url(#lg)" stroke-opacity="0.063" stroke-width="1"/><line x1="718.6" y1="59.7" x2="749.4" y2="165.2" stroke="url(#lg)" stroke-opacity="0.091" stroke-width="1"/><line x1="718.6" y1="59.7" x2="618.7" y2="145.3" stroke="url(#lg)" stroke-opacity="0.042" stroke-width="1"/><line x1="541.7" y1="90.5" x2="618.7" y2="145.3" stroke="url(#lg)" stroke-opacity="0.126" stroke-width="1"/><line x1="541.7" y1="90.5" x2="581.9" y2="125.7" stroke="url(#lg)" stroke-opacity="0.219" stroke-width="1"/><line x1="228.9" y1="448.1" x2="206.8" y2="375.2" stroke="url(#lg)" stroke-opacity="0.167" stroke-width="1"/><line x1="228.9" y1="448.1" x2="297.9" y2="333.9" stroke="url(#lg)" stroke-opacity="0.038" stroke-width="1"/><line x1="228.9" y1="448.1" x2="316.5" y2="365.6" stroke="url(#lg)" stroke-opacity="0.067" stroke-width="1"/><line x1="228.9" y1="448.1" x2="355.4" y2="438.9" stroke="url(#lg)" stroke-opacity="0.053" stroke-width="1"/><line x1="228.9" y1="448.1" x2="118.2" y2="425.4" stroke="url(#lg)" stroke-opacity="0.084" stroke-width="1"/><line x1="228.9" y1="448.1" x2="91.5" y2="394.0" stroke="url(#lg)" stroke-opacity="0.005" stroke-width="1"/><line x1="228.9" y1="448.1" x2="365.0" y2="420.1" stroke="url(#lg)" stroke-opacity="0.025" stroke-width="1"/><line x1="206.8" y1="375.2" x2="297.9" y2="333.9" stroke="url(#lg)" stroke-opacity="0.113" stroke-width="1"/><line x1="206.8" y1="375.2" x2="316.5" y2="365.6" stroke="url(#lg)" stroke-opacity="0.090" stroke-width="1"/><line x1="206.8" y1="375.2" x2="210.7" y2="249.9" stroke="url(#lg)" stroke-opacity="0.056" stroke-width="1"/><line x1="206.8" y1="375.2" x2="118.2" y2="425.4" stroke="url(#lg)" stroke-opacity="0.109" stroke-width="1"/><line x1="206.8" y1="375.2" x2="91.5" y2="394.0" stroke="url(#lg)" stroke-opacity="0.075" stroke-width="1"/><line x1="206.8" y1="375.2" x2="224.4" y2="243.6" stroke="url(#lg)" stroke-opacity="0.039" stroke-width="1"/><line x1="297.9" y1="333.9" x2="316.5" y2="365.6" stroke="url(#lg)" stroke-opacity="0.257" stroke-width="1"/><line x1="297.9" y1="333.9" x2="210.7" y2="249.9" stroke="url(#lg)" stroke-opacity="0.066" stroke-width="1"/><line x1="297.9" y1="333.9" x2="355.4" y2="438.9" stroke="url(#lg)" stroke-opacity="0.069" stroke-width="1"/><line x1="297.9" y1="333.9" x2="365.0" y2="420.1" stroke="url(#lg)" stroke-opacity="0.092" stroke-width="1"/><line x1="297.9" y1="333.9" x2="224.4" y2="243.6" stroke="url(#lg)" stroke-opacity="0.076" stroke-width="1"/><line x1="316.5" y1="365.6" x2="355.4" y2="438.9" stroke="url(#lg)" stroke-opacity="0.152" stroke-width="1"/><line x1="316.5" y1="365.6" x2="422.1" y2="422.4" stroke="url(#lg)" stroke-opacity="0.068" stroke-width="1"/><line x1="316.5" y1="365.6" x2="365.0" y2="420.1" stroke="url(#lg)" stroke-opacity="0.174" stroke-width="1"/><line x1="210.7" y1="249.9" x2="72.4" y2="251.9" stroke="url(#lg)" stroke-opacity="0.026" stroke-width="1"/><line x1="210.7" y1="249.9" x2="146.1" y2="142.8" stroke="url(#lg)" stroke-opacity="0.057" stroke-width="1"/><line x1="210.7" y1="249.9" x2="83.1" y2="197.7" stroke="url(#lg)" stroke-opacity="0.027" stroke-width="1"/><line x1="210.7" y1="249.9" x2="224.4" y2="243.6" stroke="url(#lg)" stroke-opacity="0.306" stroke-width="1"/><line x1="64.2" y1="148.0" x2="72.4" y2="251.9" stroke="url(#lg)" stroke-opacity="0.104" stroke-width="1"/><line x1="64.2" y1="148.0" x2="146.1" y2="142.8" stroke="url(#lg)" stroke-opacity="0.154" stroke-width="1"/><line x1="64.2" y1="148.0" x2="83.1" y2="197.7" stroke="url(#lg)" stroke-opacity="0.219" stroke-width="1"/><line x1="749.4" y1="165.2" x2="618.7" y2="145.3" stroke="url(#lg)" stroke-opacity="0.040" stroke-width="1"/><line x1="355.4" y1="438.9" x2="422.1" y2="422.4" stroke="url(#lg)" stroke-opacity="0.184" stroke-width="1"/><line x1="355.4" y1="438.9" x2="365.0" y2="420.1" stroke="url(#lg)" stroke-opacity="0.292" stroke-width="1"/><line x1="618.7" y1="145.3" x2="581.9" y2="125.7" stroke="url(#lg)" stroke-opacity="0.245" stroke-width="1"/><line x1="422.1" y1="422.4" x2="365.0" y2="420.1" stroke="url(#lg)" stroke-opacity="0.211" stroke-width="1"/><line x1="118.2" y1="425.4" x2="91.5" y2="394.0" stroke="url(#lg)" stroke-opacity="0.247" stroke-width="1"/><line x1="72.4" y1="251.9" x2="91.5" y2="394.0" stroke="url(#lg)" stroke-opacity="0.015" stroke-width="1"/><line x1="72.4" y1="251.9" x2="146.1" y2="142.8" stroke="url(#lg)" stroke-opacity="0.042" stroke-width="1"/><line x1="72.4" y1="251.9" x2="83.1" y2="197.7" stroke="url(#lg)" stroke-opacity="0.215" stroke-width="1"/><line x1="146.1" y1="142.8" x2="83.1" y2="197.7" stroke="url(#lg)" stroke-opacity="0.151" stroke-width="1"/><line x1="146.1" y1="142.8" x2="224.4" y2="243.6" stroke="url(#lg)" stroke-opacity="0.051" stroke-width="1"/><line x1="83.1" y1="197.7" x2="224.4" y2="243.6" stroke="url(#lg)" stroke-opacity="0.003" stroke-width="1"/>
<circle cx="322.9" cy="372.2" r="2.5" fill="hsl(118 85% 60%)" fill-opacity="0.59"/><circle cx="746.0" cy="133.3" r="3.5" fill="hsl(32 85% 62%)" fill-opacity="0.86"/><circle cx="142.5" cy="271.9" r="2.7" fill="hsl(32 85% 62%)" fill-opacity="0.86"/><circle cx="333.7" cy="395.0" r="2.2" fill="hsl(118 85% 60%)" fill-opacity="0.69"/><circle cx="117.3" cy="263.5" r="2.0" fill="hsl(32 85% 62%)" fill-opacity="0.78"/><circle cx="130.9" cy="62.4" r="4.7" fill="hsl(32 85% 62%)" fill-opacity="0.70"/><circle cx="492.8" cy="226.5" r="4.2" fill="hsl(118 85% 60%)" fill-opacity="0.79"/><circle cx="183.9" cy="434.6" r="4.9" fill="hsl(32 85% 62%)" fill-opacity="0.81"/><circle cx="523.0" cy="298.7" r="3.8" fill="hsl(32 85% 62%)" fill-opacity="0.85"/><circle cx="418.9" cy="264.2" r="4.5" fill="hsl(118 85% 60%)" fill-opacity="0.95"/><circle cx="718.6" cy="59.7" r="4.0" fill="hsl(32 85% 62%)" fill-opacity="0.83"/><circle cx="541.7" cy="90.5" r="1.8" fill="hsl(32 85% 62%)" fill-opacity="0.56"/><circle cx="228.9" cy="448.1" r="4.4" fill="hsl(118 85% 60%)" fill-opacity="0.86"/><circle cx="206.8" cy="375.2" r="4.1" fill="hsl(32 85% 62%)" fill-opacity="0.87"/><circle cx="297.9" cy="333.9" r="3.5" fill="hsl(32 85% 62%)" fill-opacity="0.87"/><circle cx="316.5" cy="365.6" r="2.4" fill="hsl(118 85% 60%)" fill-opacity="0.98"/><circle cx="210.7" cy="249.9" r="3.1" fill="hsl(32 85% 62%)" fill-opacity="0.56"/><circle cx="64.2" cy="148.0" r="4.2" fill="hsl(32 85% 62%)" fill-opacity="0.82"/><circle cx="749.4" cy="165.2" r="5.0" fill="hsl(118 85% 60%)" fill-opacity="0.89"/><circle cx="355.4" cy="438.9" r="4.4" fill="hsl(32 85% 62%)" fill-opacity="1.00"/><circle cx="618.7" cy="145.3" r="2.7" fill="hsl(32 85% 62%)" fill-opacity="0.74"/><circle cx="422.1" cy="422.4" r="2.0" fill="hsl(118 85% 60%)" fill-opacity="0.68"/><circle cx="529.5" cy="315.8" r="3.6" fill="hsl(32 85% 62%)" fill-opacity="0.57"/><circle cx="118.2" cy="425.4" r="1.9" fill="hsl(32 85% 62%)" fill-opacity="0.63"/><circle cx="72.4" cy="251.9" r="2.3" fill="hsl(118 85% 60%)" fill-opacity="0.90"/><circle cx="91.5" cy="394.0" r="4.2" fill="hsl(32 85% 62%)" fill-opacity="0.74"/><circle cx="365.0" cy="420.1" r="3.6" fill="hsl(32 85% 62%)" fill-opacity="0.56"/><circle cx="146.1" cy="142.8" r="4.3" fill="hsl(118 85% 60%)" fill-opacity="0.90"/><circle cx="581.9" cy="125.7" r="2.8" fill="hsl(32 85% 62%)" fill-opacity="0.75"/><circle cx="83.1" cy="197.7" r="2.9" fill="hsl(32 85% 62%)" fill-opacity="0.61"/><circle cx="224.4" cy="243.6" r="4.6" fill="hsl(118 85% 60%)" fill-opacity="0.72"/>
</svg>